<svg width="329" height="140" viewBox="0 0 329 140" fill="none" xmlns="http://www.w3.org/2000/svg">
<path fill-rule="evenodd" clip-rule="evenodd" d="M96.3044 73.2572C91.1454 73.2572 86.5079 72.1046 82.3917 69.7996C78.2756 67.4945 74.4887 64.3937 71.0311 60.497C67.5735 56.6004 64.1983 52.3196 60.9053 47.6546C59.8626 46.1728 58.8198 44.6635 57.777 43.1268C56.7343 41.5352 55.6641 39.9162 54.5664 38.2697C50.6149 42.6054 46.6359 46.4746 42.6295 49.8773C38.9985 52.9612 35.6155 55.3013 32.4803 56.8975C31.8545 57.2162 31.1464 57.3332 30.45 57.2423C30.2747 57.2194 30.0937 57.1946 29.9204 57.1687C29.2446 57.068 28.9286 56.5854 28.9286 55.9021C28.9286 55.5203 29.1515 55.2137 29.4859 55.0294C32.4961 53.3708 35.9717 50.8302 39.9129 47.4076C44.0839 43.7854 48.3373 39.7241 52.673 35.2238C52.673 35.2238 53.9353 33.8791 54.3194 33.495L55.8013 31.8485C59.9174 27.2933 63.8415 22.546 67.5735 17.6066C68.974 15.753 70.3328 13.9149 71.6261 12.0836L71.9096 11.7291C72.4999 10.9913 73.6646 11.67 73.3137 12.5473L74.1056 11.3225C73.002 13.1791 71.84 15.0817 70.6195 17.0303C67.5461 21.9697 64.1159 26.7993 60.3291 31.5192C59.7802 32.1778 59.2314 32.8638 58.6826 33.5773C58.1887 34.2359 57.0433 35.4433 56.4396 36.047C56.4396 36.1019 56.1854 36.486 56.1306 36.5409C57.0636 37.9679 57.9691 39.3674 58.8472 40.7394C59.7254 42.0566 60.6309 43.4287 61.5639 44.8556C64.4727 49.2462 67.5735 53.28 70.8664 56.9571C74.2142 60.6891 77.9188 63.7076 81.9801 66.0127C86.0963 68.3178 90.7613 69.58 95.9751 69.7996C97.2374 69.8545 98.7192 69.7173 100.421 69.388C101.599 69.167 102.802 68.8102 104.029 68.3176C104.48 68.1199 105.07 67.8551 105.854 67.4945L105.882 67.4814C111.441 64.8996 124.471 60.3663 130.333 58.4486C136.26 56.5278 142.133 55.0459 147.95 54.0032C153.768 52.9055 159.338 52.3567 164.662 52.3567C169.711 52.3567 173.251 53.2348 175.282 54.9911C177.367 56.6924 178.41 58.9975 178.41 61.9062C178.41 64.2113 177.888 66.7907 176.846 69.6446C175.858 72.4436 174.568 75.3798 172.977 78.4532C171.604 81.1424 170.315 83.5573 169.107 85.6977C167.955 87.7832 166.885 89.7041 165.897 91.4603C168.312 88.332 170.864 85.2586 173.553 82.2401C176.242 79.1667 178.959 76.3951 181.703 73.9254C184.502 71.4008 187.218 69.3976 189.853 67.9158C192.542 66.434 195.012 65.6931 197.262 65.6931C198.853 65.6931 199.951 66.1047 200.555 66.9279C201.159 67.7512 201.46 68.8214 201.46 70.1385C201.46 71.7301 201.104 73.5687 200.39 75.6542C199.732 77.6849 198.908 79.7155 197.92 81.7461C196.933 83.7219 196.027 85.4507 195.204 86.9325C194.161 88.7985 193.173 90.5822 192.24 92.2835C191.362 93.9849 190.429 95.6588 189.441 97.3053C190.813 96.0979 192.597 94.3691 194.792 92.1189C196.988 89.8687 199.457 87.3716 202.201 84.6275C204.945 81.8285 207.799 79.0295 210.763 76.2305C213.727 73.3766 216.663 70.7697 219.572 68.4098C222.535 65.9949 225.279 64.1015 227.804 62.7295C228.133 62.5099 228.545 62.5374 229.039 62.8118C229.533 63.0862 229.972 63.4704 230.356 63.9643C230.74 64.4582 230.932 64.9247 230.932 65.3638C230.932 65.9675 230.768 66.7084 230.438 67.5865C230.164 68.4098 229.642 69.233 228.874 70.0562L223.524 81.0052L217.843 94.177C217.35 95.6563 216.054 99.1652 214.492 103.394L214.492 103.394L214.492 103.394L214.491 103.396L214.49 103.399C211.923 110.35 208.638 119.245 207.02 124.266C206.333 126.398 206.063 128.627 206.097 130.866C206.129 133.049 206.288 134.908 206.955 136.39C207.55 137.747 208.046 138.395 208.346 138.696C208.516 138.867 208.656 139.098 208.656 139.339C208.656 139.607 208.476 139.841 208.21 139.873C207.376 139.974 205.558 139.946 204.404 138.091C202.867 135.676 201.979 132.465 201.979 129.062C201.979 124.174 205.623 115.46 208.955 107.496C210.673 103.389 212.307 99.4808 213.315 96.3997C213.315 96.3997 221.117 78.6492 224.629 70.6711C225.72 68.1918 225.649 67.0695 223.432 68.6258C221.818 69.759 219.995 71.0851 219.078 71.785C216.992 73.3766 214.687 75.3249 212.162 77.63C209.638 79.935 207.086 82.4047 204.506 85.0391C201.982 87.6186 199.567 90.1431 197.262 92.6128C195.012 95.0825 193.063 97.3053 191.417 99.281C189.825 101.202 188.728 102.656 188.124 103.644C187.85 104.083 187.411 104.303 186.807 104.303C186.093 104.303 185.352 103.946 184.584 103.233C183.871 102.519 183.514 101.723 183.514 100.845C183.514 100.516 183.926 99.6926 184.749 98.3755C185.572 97.0034 186.56 95.3295 187.712 93.3537C188.92 91.3231 190.045 89.2101 191.088 87.0148C191.417 86.3014 191.883 85.2861 192.487 83.9689C193.091 82.6517 193.695 81.2248 194.298 79.6881C194.957 78.0965 195.506 76.5598 195.945 75.078C196.384 73.5413 196.603 72.2241 196.603 71.1264C196.603 70.2483 196.439 69.5623 196.109 69.0684C195.78 68.5195 195.231 68.2451 194.463 68.2451C193.42 68.2451 191.966 68.7665 190.1 69.8093C187.52 71.2362 184.804 73.2943 181.95 75.9835C179.096 78.6179 176.242 81.6638 173.388 85.1214C170.589 88.5241 167.927 92.1463 165.403 95.9881C162.878 99.775 160.655 103.589 158.735 107.431C156.814 111.218 155.332 114.813 154.289 118.215C154.015 118.6 153.603 118.984 153.054 119.368C152.505 119.752 151.957 119.944 151.408 119.944C151.024 119.944 150.667 119.78 150.338 119.45C150.008 119.121 149.844 118.545 149.844 117.721C149.844 117.282 149.981 116.734 150.255 116.075C150.53 115.416 150.804 114.648 151.078 113.77C151.298 113.111 151.984 111.657 153.137 109.407C154.289 107.157 155.743 104.385 157.5 101.092C159.256 97.7443 161.149 94.1221 163.18 90.2255C165.266 86.2739 167.296 82.295 169.272 78.2886C170.644 75.5445 171.797 72.7455 172.73 69.8916C173.663 66.9828 174.129 64.3485 174.129 61.9885C174.129 59.5737 173.388 57.6254 171.906 56.1436C170.479 54.6069 167.927 53.8385 164.25 53.8385C159.146 53.8385 153.795 54.3873 148.197 55.485C142.654 56.5278 137.084 58.0096 131.486 59.9305C126.596 61.5766 115.263 66.0341 109.043 68.7948C105.183 70.7588 99.8765 73.2572 96.3044 73.2572ZM79.4875 2.99841C81.7453 3.17045 84.0031 3.45717 86.2609 3.85855C88.7855 4.29761 91.0631 4.9562 93.0938 5.83431C95.1244 6.65755 96.7434 7.75519 97.9508 9.12725C99.2131 10.4444 99.8443 12.1183 99.8443 14.149C99.8443 17.1126 98.9387 19.7744 97.1276 22.1343C95.3714 24.4943 93.0663 26.5524 90.2124 28.3086C87.3586 30.0648 84.2303 31.5192 80.8276 32.6717C77.4798 33.7694 74.1594 34.6201 70.8664 35.2238C67.6284 35.7726 64.7745 36.047 62.3048 36.047C61.4267 36.047 60.5211 36.0196 59.5881 35.9647C59.252 35.9227 58.9148 35.9949 58.549 36.0732C57.959 36.1995 57.2945 36.3418 56.4396 36.047C56.7445 36.1522 57.088 36.2849 57.4585 36.4282C58.5521 36.8509 59.8815 37.3648 61.1523 37.5288C62.9085 37.7483 64.6922 37.8581 66.5033 37.8581C68.973 37.8581 71.8269 37.5563 75.0649 36.9526C78.303 36.294 81.5959 35.3335 84.9437 34.0712C88.2915 32.8089 91.365 31.2448 94.164 29.3788C97.0178 27.5128 99.3229 25.3724 101.079 22.9576C102.835 20.4879 103.713 17.7712 103.713 14.8076C103.713 12.4476 103 10.4719 101.573 8.88028C100.201 7.23381 98.335 5.91664 95.9751 4.92876C93.67 3.94088 91.0905 3.17253 88.2367 2.6237C85.3828 2.02 82.5015 1.60835 79.5927 1.38882L78.0286 1.30653C76.0528 1.14188 74.1319 1.05956 72.2659 1.05956C70.4548 1.00467 68.7535 0.977234 67.1619 0.977234H63.869C60.0272 0.977234 55.8836 1.2242 51.4381 1.71814C47.0475 2.21208 42.6021 2.98044 38.1017 4.0232C33.6014 5.06596 29.2657 6.41058 25.0946 8.05705C20.9236 9.64863 17.1093 11.5421 13.6517 13.7374C10.249 15.9326 7.39512 18.4298 5.09006 21.2288C2.78501 24.0278 1.27575 27.1561 0.562278 30.6137C0.397631 31.4369 0.315308 32.2601 0.315308 33.0834C0.315308 35.114 0.781807 36.98 1.71481 38.6813C2.70269 40.3278 3.91009 41.6999 5.33703 42.7975C6.76397 43.8403 8.16347 44.4714 9.53553 44.6909C9.97459 44.7458 10.3862 44.691 10.7704 44.5263C11.2094 44.3617 11.429 44.1696 11.429 43.95C11.429 43.6756 11.0997 43.511 10.4411 43.4561C8.79462 43.1817 7.23047 42.2487 5.74865 40.6571C4.26683 39.0655 3.52592 37.0898 3.52592 34.7298C3.52592 33.8517 3.63568 33.0559 3.85521 32.3424C4.62356 28.7751 6.18771 25.5919 8.54765 22.7929C10.9076 19.9391 13.8438 17.4145 17.3562 15.2192C20.8687 13.0239 24.7105 11.1305 28.8815 9.53887C33.1075 7.94728 37.4706 6.65755 41.9709 5.66966C46.4713 4.6269 50.8893 3.85855 55.225 3.36461C59.6156 2.87067 63.6769 2.6237 67.4089 2.6237C68.6712 2.6237 70.153 2.65114 71.8543 2.70603C73.3228 2.70603 75.0207 2.80825 76.6579 2.90681C76.7121 2.91007 76.7663 2.91333 76.8204 2.91659L78.8462 2.93363L79.4895 2.99539L79.4875 2.99841ZM90.7585 50.9213C89.8126 50.606 89.0875 50.1331 88.5831 49.5026C88.1102 48.8405 87.7949 48.1154 87.6373 47.3272C87.4797 46.539 87.4481 45.7193 87.5427 44.8681C87.6688 43.9853 87.858 43.1499 88.1102 42.3617C89.056 41.3528 90.1122 40.2021 91.2787 38.9095C92.4767 37.5853 93.7378 36.2927 95.0619 35.0317C96.386 33.7706 97.7575 32.6041 99.1762 31.5322C100.626 30.4287 102.092 29.5932 103.574 29.0258C104.079 28.8051 104.473 28.8208 104.756 29.073C105.072 29.2937 105.292 29.6563 105.419 30.1607C105.545 30.6652 105.592 31.2484 105.56 31.9105C105.56 32.5725 105.513 33.2188 105.419 33.8494C105.324 34.4799 105.198 35.0474 105.04 35.5518C104.883 36.0563 104.725 36.4031 104.567 36.5922C104.189 37.0336 103.448 37.5538 102.345 38.1528C101.273 38.7518 100.075 39.4139 98.7506 40.139C97.4264 40.8326 96.1023 41.5577 94.7782 42.3144C93.454 43.071 92.3663 43.8277 91.5151 44.5843C90.6639 45.3095 90.1594 46.0346 90.0018 46.7597C89.8442 47.4848 90.2856 48.1469 91.326 48.7459C92.3979 48.872 93.6905 48.8247 95.2038 48.604C96.7486 48.3518 98.3092 48.0365 99.8855 47.6582C101.493 47.2484 103.038 46.8385 104.52 46.4287C106.002 45.9873 107.216 45.6405 108.161 45.3883L108.729 45.9085C108.035 46.8228 106.9 47.6582 105.324 48.4149C103.748 49.1715 102.045 49.8021 100.217 50.3065C98.388 50.7794 96.6067 51.0947 94.8727 51.2523C93.1388 51.3784 91.7673 51.2681 90.7585 50.9213ZM102.061 32.8563C102.029 32.8248 101.793 32.9666 101.352 33.2819C100.91 33.5656 100.358 33.9597 99.6964 34.4642C99.0658 34.9371 98.3722 35.473 97.6156 36.072C96.8905 36.6395 96.2126 37.1755 95.5821 37.6799C94.9831 38.1844 94.4786 38.6257 94.0688 39.0041C93.6589 39.3508 93.4855 39.5243 93.5486 39.5243C94.053 39.6188 94.6993 39.5558 95.4875 39.3351C96.3072 39.0829 97.1427 38.7361 97.9939 38.2947C98.8767 37.8533 99.7121 37.3647 100.5 36.8287C101.288 36.2612 101.903 35.7095 102.345 35.1735C102.818 34.6376 103.054 34.1647 103.054 33.7548C103.086 33.345 102.754 33.0454 102.061 32.8563ZM108.067 49.5971C108.067 49.7232 108.098 49.8021 108.161 49.8336C108.161 49.9282 108.224 50.1173 108.351 50.4011C108.508 50.6848 108.619 50.8582 108.682 50.9213C111.866 51.0789 114.703 50.8897 117.194 50.3538C119.685 49.8178 121.844 49.0612 123.673 48.0838C125.501 47.1065 127.015 45.9873 128.213 44.7262C129.411 43.4651 130.309 42.1725 130.908 40.8484C131.507 39.5242 131.822 38.2474 131.854 37.0179C131.885 35.7883 131.649 34.7321 131.145 33.8494C130.672 32.9666 129.931 32.3203 128.922 31.9105C127.913 31.4691 126.668 31.3903 125.186 31.674C124.24 31.8632 123.405 32.2573 122.68 32.8563C121.954 33.4553 121.245 34.1174 120.552 34.8425C119.889 35.5361 119.196 36.1982 118.471 36.8287C117.777 37.4592 116.989 37.8848 116.106 38.1055C115.98 37.3174 116.043 36.5134 116.295 35.6937C116.548 34.874 116.879 34.0543 117.288 33.2346C117.698 32.4149 118.14 31.5952 118.613 30.7755C119.117 29.9243 119.543 29.1046 119.889 28.3164C120.268 27.4967 125.627 13.0524 125.753 12.2957C125.88 11.5075 125.801 10.7509 125.517 10.0258C125.202 9.26912 124.839 8.96962 124.429 9.12725C124.019 9.25336 123.562 9.72626 123.058 10.546C122.553 11.3341 122.018 12.3903 116.343 27.3706C115.775 28.6947 115.192 30.1607 114.593 31.7686C114.025 33.345 113.442 35.0001 112.843 36.7341C112.276 38.4366 111.708 40.0917 111.141 41.6996C110.573 43.276 110.037 44.742 109.533 46.0976C109.028 47.4218 108.571 48.4937 108.161 49.3134C108.098 49.3764 108.067 49.471 108.067 49.5971ZM112.323 47.9893C112.323 47.5794 112.339 47.3114 112.37 47.1853C112.686 46.271 113.158 45.2779 113.789 44.206C114.451 43.1341 115.223 42.0779 116.106 41.0375C116.989 39.9972 117.951 39.0041 118.991 38.0582C120.063 37.1124 121.166 36.3085 122.301 35.6464C123.436 34.9528 124.571 34.4326 125.706 34.0858C126.841 33.739 127.929 33.6445 128.969 33.8021C129.032 33.8336 129.127 33.9124 129.253 34.0385C129.411 34.1647 129.505 34.2592 129.537 34.3223C129.757 36.5922 129.379 38.673 128.402 40.5646C127.424 42.4563 126.1 44.0641 124.429 45.3883C122.758 46.6809 120.851 47.6425 118.707 48.273C116.595 48.872 114.483 49.0296 112.37 48.7459C112.339 48.6198 112.323 48.3676 112.323 47.9893ZM137.245 50.9213C136.299 50.606 135.574 50.1331 135.07 49.5026C134.597 48.8405 134.282 48.1154 134.124 47.3272C133.966 46.539 133.935 45.7193 134.029 44.8681C134.155 43.9853 134.345 43.1499 134.597 42.3617C135.543 41.3528 136.599 40.2021 137.765 38.9095C138.963 37.5853 140.224 36.2927 141.549 35.0317C142.873 33.7706 144.244 32.6041 145.663 31.5322C147.113 30.4287 148.579 29.5932 150.061 29.0258C150.565 28.8051 150.959 28.8208 151.243 29.073C151.558 29.2937 151.779 29.6563 151.905 30.1607C152.031 30.6652 152.079 31.2484 152.047 31.9105C152.047 32.5725 152 33.2188 151.905 33.8494C151.811 34.4799 151.684 35.0474 151.527 35.5518C151.369 36.0563 151.212 36.4031 151.054 36.5922C150.676 37.0336 149.935 37.5538 148.831 38.1528C147.759 38.7518 146.561 39.4139 145.237 40.139C143.913 40.8326 142.589 41.5577 141.265 42.3144C139.941 43.071 138.853 43.8277 138.002 44.5843C137.151 45.3095 136.646 46.0346 136.488 46.7597C136.331 47.4848 136.772 48.1469 137.813 48.7459C138.884 48.872 140.177 48.8247 141.69 48.604C143.235 48.3518 144.796 48.0365 146.372 47.6582C147.98 47.2484 149.525 46.8385 151.007 46.4287C152.488 45.9873 153.702 45.6405 154.648 45.3883L154.882 45.6028C154.893 45.2719 154.925 44.9324 154.979 44.5843C155.231 43.1341 155.783 41.6208 156.634 40.0444C157.485 38.4366 158.494 36.9075 159.661 35.4573C160.827 34.007 162.057 32.6987 163.349 31.5322C164.642 30.3657 165.856 29.4829 166.991 28.8839C168.157 28.2849 169.15 28.0484 169.97 28.1745C170.79 28.3006 171.294 28.9312 171.483 30.0661C171.578 30.5706 171.515 31.1223 171.294 31.7213C171.105 32.3203 170.821 32.9036 170.443 33.4711C170.096 34.007 169.686 34.5115 169.214 34.9844C168.772 35.4257 168.331 35.7568 167.889 35.9775C167.48 36.1981 167.101 36.277 166.754 36.2139C166.439 36.1509 166.234 35.8829 166.14 35.41C166.518 34.7794 166.944 34.1489 167.416 33.5184C167.889 32.8563 168.347 32.2415 168.788 31.674C168.599 31.3272 168.236 31.2484 167.7 31.4376C167.164 31.6267 166.518 32.0051 165.761 32.5725C165.005 33.14 164.201 33.8652 163.349 34.7479C162.53 35.5991 161.726 36.5292 160.938 37.538C160.149 38.5469 159.44 39.6031 158.81 40.7065C158.211 41.7784 157.769 42.8188 157.485 43.8277C157.202 44.8366 157.123 45.7824 157.249 46.6651C157.407 47.5163 157.864 48.2099 158.62 48.7459C159.661 48.8405 160.859 48.7459 162.215 48.4622C163.57 48.1469 164.957 47.7528 166.376 47.2799C167.795 46.807 169.198 46.3026 170.585 45.7666C172.004 45.1991 173.281 44.6789 174.415 44.206C175.582 43.7331 176.559 43.3705 177.347 43.1183C178.167 42.8346 178.703 42.7558 178.955 42.8819C179.554 43.1972 179.586 43.6543 179.05 44.2533C178.546 44.8523 177.679 45.4986 176.449 46.1922C175.219 46.8858 173.753 47.5794 172.051 48.273C170.38 48.9351 168.693 49.5183 166.991 50.0227C165.288 50.4957 163.681 50.8424 162.167 51.0631C160.654 51.2523 159.472 51.205 158.62 50.9213C157.013 50.3853 155.941 49.5498 155.405 48.4149C155.112 47.7557 154.941 47.0487 154.893 46.2939C154.19 47.0589 153.163 47.7659 151.811 48.4149C150.234 49.1715 148.532 49.8021 146.703 50.3065C144.875 50.7794 143.093 51.0947 141.359 51.2523C139.625 51.3784 138.254 51.2681 137.245 50.9213ZM148.548 32.8563C148.516 32.8248 148.28 32.9666 147.838 33.2819C147.397 33.5656 146.845 33.9597 146.183 34.4642C145.552 34.9371 144.859 35.473 144.102 36.072C143.377 36.6395 142.699 37.1755 142.069 37.6799C141.47 38.1844 140.965 38.6257 140.555 39.0041C140.146 39.3508 139.972 39.5243 140.035 39.5243C140.54 39.6188 141.186 39.5558 141.974 39.3351C142.794 39.0829 143.629 38.7361 144.481 38.2947C145.363 37.8533 146.199 37.3647 146.987 36.8287C147.775 36.2612 148.39 35.7095 148.831 35.1735C149.304 34.6376 149.541 34.1647 149.541 33.7548C149.572 33.345 149.241 33.0454 148.548 32.8563ZM182.997 50.9213C181.389 50.3853 180.317 49.5498 179.781 48.4149C179.277 47.2799 179.135 46.0031 179.356 44.5843C179.608 43.1341 180.16 41.6208 181.011 40.0444C181.862 38.4366 182.871 36.9075 184.038 35.4573C185.204 34.007 186.434 32.6987 187.726 31.5322C189.019 30.3657 190.233 29.4829 191.368 28.8839C192.534 28.2849 193.527 28.0484 194.347 28.1745C195.167 28.3006 195.671 28.9312 195.86 30.0661C195.955 30.5706 195.892 31.1223 195.671 31.7213C195.482 32.3203 195.198 32.9036 194.82 33.4711C194.473 34.007 194.063 34.5115 193.59 34.9844C193.149 35.4257 192.708 35.7568 192.266 35.9775C191.856 36.1981 191.478 36.277 191.131 36.2139C190.816 36.1509 190.611 35.8829 190.516 35.41C190.895 34.7794 191.32 34.1489 191.793 33.5184C192.266 32.8563 192.723 32.2415 193.165 31.674C192.976 31.3272 192.613 31.2484 192.077 31.4376C191.541 31.6267 190.895 32.0051 190.138 32.5725C189.381 33.14 188.578 33.8652 187.726 34.7479C186.907 35.5991 186.103 36.5292 185.314 37.538C184.526 38.5469 183.817 39.6031 183.186 40.7065C182.587 41.7784 182.146 42.8188 181.862 43.8277C181.579 44.8366 181.5 45.7824 181.626 46.6651C181.783 47.5163 182.241 48.2099 182.997 48.7459C184.038 48.8405 185.236 48.7459 186.591 48.4622C187.947 48.1469 189.334 47.7528 190.753 47.2799C192.172 46.807 193.575 46.3026 194.962 45.7666C196.38 45.1991 197.657 44.6789 198.792 44.206C199.959 43.7331 200.936 43.3705 201.724 43.1183C202.544 42.8346 203.08 42.7558 203.332 42.8819C203.931 43.1972 203.963 43.6543 203.427 44.2533C202.922 44.8523 202.055 45.4986 200.826 46.1922C199.596 46.8858 198.13 47.5794 196.428 48.273C194.757 48.9351 193.07 49.5183 191.368 50.0227C189.665 50.4957 188.057 50.8424 186.544 51.0631C185.031 51.2523 183.848 51.205 182.997 50.9213ZM203.969 47.5636C204.064 48.7932 204.489 49.7232 205.246 50.3538C206.097 51.0789 206.98 51.4888 207.894 51.5833C208.84 51.6779 209.77 51.5676 210.684 51.2523C211.599 50.937 212.481 50.4641 213.333 49.8336C214.215 49.203 215.035 48.541 215.792 47.8474C216.58 47.1223 217.305 46.4129 217.967 45.7193C218.629 44.9942 219.197 44.4109 219.67 43.9696C220.048 44.2533 220.316 44.5843 220.474 44.9627C220.663 45.341 220.931 45.7193 221.277 46.0976C222.003 46.9804 222.917 47.5479 224.02 47.8001C225.155 48.0208 226.353 48.0365 227.614 47.8474C228.876 47.6267 230.168 47.2326 231.492 46.6651C231.492 46.6651 232.342 46.0976 232.855 45.4849C232.855 45.4849 233.675 43.8881 232.855 44.4556C232.067 45.0231 228.738 46.5142 226.679 46.5142C225.396 46.5105 224.998 46.3962 224.465 46.243C224.306 46.1974 224.136 46.1483 223.926 46.0976C223.011 45.8769 222.475 45.1676 222.318 43.9696C222.192 43.0237 222.223 42.0937 222.412 41.1794C222.633 40.2651 222.901 39.3666 223.216 38.4839C223.563 37.6011 223.91 36.7341 224.257 35.8829C224.604 35.0001 224.856 34.1489 225.013 33.3292C225.171 32.478 225.187 31.6583 225.061 30.8701C224.935 30.0504 224.556 29.2464 223.926 28.4583C222.917 27.1972 221.798 26.4878 220.568 26.3302C219.339 26.141 218.077 26.346 216.785 26.945C215.492 27.5125 214.2 28.411 212.907 29.6405C211.614 30.8386 210.416 32.21 209.313 33.7548C208.21 35.2681 207.232 36.876 206.381 38.5784C205.561 40.2494 204.931 41.8572 204.489 43.4021C204.079 44.9469 203.906 46.3341 203.969 47.5636ZM207.658 50.1646C206.68 50.2277 206.05 49.7548 205.766 48.7459C205.514 47.8631 205.624 46.6494 206.097 45.1045C206.602 43.5597 207.327 41.9203 208.273 40.1863C209.218 38.4208 210.306 36.6868 211.536 34.9844C212.797 33.2504 214.058 31.7686 215.319 30.5391C216.611 29.278 217.825 28.3795 218.96 27.8435C220.095 27.276 221.041 27.2918 221.798 27.8908C222.081 29.9085 221.924 31.9578 221.325 34.0385C220.757 36.1193 219.922 38.1055 218.818 39.9972C217.715 41.8572 216.47 43.5597 215.082 45.1045C213.695 46.6178 212.355 47.8159 211.063 48.6986C209.77 49.5814 208.635 50.07 207.658 50.1646ZM235.643 114.924C236.147 115.492 236.825 115.949 237.676 116.296C238.338 116.579 238.921 116.769 239.426 116.863C239.93 116.989 240.592 116.974 241.412 116.816C241.444 116.816 241.585 116.721 241.838 116.532C242.09 116.311 242.326 116.091 242.547 115.87C242.799 115.649 242.988 115.444 243.114 115.255C243.241 115.066 243.193 114.972 242.973 114.972H238.196L236.588 113.08C236.021 112.386 235.769 111.567 235.832 110.621C235.895 109.675 236.115 108.682 236.494 107.642C236.872 106.601 237.313 105.561 237.818 104.52C238.354 103.448 238.795 102.455 239.142 101.541C239.52 100.627 239.71 99.8228 239.71 99.1292C239.71 98.4041 239.379 97.8839 238.716 97.5687C238.338 97.8839 237.739 98.5145 236.919 99.4603C236.1 100.406 235.154 101.51 234.082 102.771C233.01 104 231.844 105.293 230.582 106.648C229.353 107.973 228.139 109.155 226.941 110.195C225.775 111.236 224.671 112.055 223.631 112.654C222.622 113.222 221.771 113.364 221.077 113.08C220.888 112.355 220.998 111.519 221.408 110.574C221.818 109.628 222.354 108.65 223.016 107.642C223.71 106.601 224.435 105.561 225.191 104.52C225.98 103.48 226.61 102.503 227.083 101.588C227.587 100.674 227.871 99.8701 227.934 99.1765C228.029 98.4514 227.714 97.9155 226.988 97.5687C226.673 97.7894 226.216 98.2623 225.617 98.9874C225.049 99.681 224.419 100.532 223.725 101.541C223.063 102.518 222.37 103.59 221.645 104.757C220.951 105.892 220.336 106.995 219.8 108.067C219.264 109.139 218.854 110.132 218.571 111.046C218.318 111.929 218.271 112.607 218.429 113.08C218.902 114.467 219.548 115.287 220.368 115.539C221.219 115.791 222.149 115.712 223.158 115.303C224.167 114.893 225.207 114.262 226.279 113.411C227.382 112.528 228.407 111.677 229.353 110.857C230.299 110.038 231.134 109.36 231.859 108.824C232.584 108.256 233.089 108.067 233.373 108.256C233.499 109.076 233.641 109.896 233.798 110.715C233.956 111.504 234.177 112.26 234.46 112.985C234.744 113.711 235.138 114.357 235.643 114.924ZM243.893 116.296C243.83 116.264 243.83 115.902 243.893 115.208C243.988 114.483 244.114 113.584 244.272 112.512C244.429 111.441 244.634 110.258 244.886 108.966C245.139 107.673 245.407 106.444 245.69 105.277C245.974 104.079 246.274 103.039 246.589 102.156C246.936 101.242 247.267 100.611 247.582 100.264C247.803 100.044 248.023 100.044 248.244 100.264C248.465 100.453 248.685 100.706 248.906 101.021C249.127 101.305 249.347 101.573 249.568 101.825C249.789 102.046 250.025 102.061 250.278 101.872C251.16 100.643 252.122 99.476 253.162 98.3726C254.234 97.2376 255.416 96.2603 256.709 95.4406C256.835 95.346 257.182 95.2041 257.749 95.015C258.317 94.7943 258.963 94.5894 259.688 94.4002C260.413 94.1795 261.154 94.0061 261.911 93.88C262.699 93.7224 263.361 93.6593 263.897 93.6908C264.465 93.6908 264.843 93.8327 265.032 94.1165C265.253 94.3687 265.158 94.81 264.748 95.4406C262.857 95.4721 261.091 96.0238 259.452 97.0958C257.812 98.1677 256.299 99.4918 254.912 101.068C253.525 102.645 252.264 104.363 251.129 106.223C249.994 108.051 249.001 109.754 248.149 111.33C247.33 112.907 246.636 114.215 246.069 115.255C245.533 116.296 245.139 116.816 244.886 116.816C244.855 116.816 244.713 116.753 244.461 116.627C244.209 116.469 244.019 116.359 243.893 116.296ZM260.701 115.208C260.638 115.902 260.638 116.264 260.701 116.296C260.827 116.359 261.016 116.469 261.268 116.627C261.52 116.753 261.662 116.816 261.694 116.816C261.946 116.816 262.34 116.296 262.876 115.255C263.444 114.215 264.137 112.907 264.957 111.33C265.808 109.754 266.801 108.051 267.936 106.223C269.071 104.363 270.332 102.645 271.719 101.068C273.107 99.4918 274.62 98.1677 276.259 97.0958C277.899 96.0238 279.664 95.4721 281.556 95.4406C281.966 94.81 282.06 94.3687 281.84 94.1165C281.65 93.8327 281.272 93.6908 280.705 93.6908C280.169 93.6593 279.507 93.7224 278.718 93.88C277.962 94.0061 277.221 94.1795 276.496 94.4002C275.771 94.5894 275.124 94.7943 274.557 95.015C273.989 95.2041 273.642 95.346 273.516 95.4406C272.224 96.2603 271.042 97.2376 269.97 98.3726C268.929 99.476 267.968 100.643 267.085 101.872C266.833 102.061 266.596 102.046 266.376 101.825C266.155 101.573 265.934 101.305 265.713 101.021C265.493 100.706 265.272 100.453 265.051 100.264C264.831 100.044 264.61 100.044 264.389 100.264C264.074 100.611 263.743 101.242 263.396 102.156C263.081 103.039 262.781 104.079 262.498 105.277C262.214 106.444 261.946 107.673 261.694 108.966C261.442 110.258 261.237 111.441 261.079 112.512C260.921 113.584 260.795 114.483 260.701 115.208ZM278.832 115.728C278.076 115.098 277.65 114.168 277.555 112.938C277.492 111.709 277.666 110.321 278.076 108.777C278.517 107.232 279.147 105.624 279.967 103.953C280.818 102.25 281.796 100.643 282.899 99.1292C284.003 97.5844 285.201 96.213 286.493 95.015C287.786 93.7854 289.078 92.8869 290.371 92.3194C291.664 91.7204 292.925 91.5155 294.154 91.7046C295.384 91.8623 296.503 92.5716 297.512 93.8327C298.143 94.6209 298.521 95.4248 298.647 96.2445C298.773 97.0327 298.757 97.8524 298.6 98.7036C298.442 99.5233 298.19 100.375 297.843 101.257C297.496 102.109 297.149 102.976 296.803 103.858C296.487 104.741 296.219 105.64 295.999 106.554C295.809 107.468 295.778 108.398 295.904 109.344C296.062 110.542 296.598 111.251 297.512 111.472C298.426 111.693 299.514 111.63 300.775 111.283C302.068 110.936 303.423 110.384 304.842 109.628C306.261 108.871 307.569 108.114 308.767 107.358C309.997 106.601 311.006 105.939 311.794 105.372L312.236 105.066C311.813 104.379 311.413 103.693 311.037 103.007C310.533 101.998 310.139 101.005 309.855 100.028C309.603 99.0504 309.603 98.1361 309.855 97.2849C310.202 97.0327 310.58 97.1903 310.99 97.7578C311.4 98.2938 311.825 99.0504 312.267 100.028C312.74 100.974 313.228 102.03 313.733 103.196C313.934 103.65 314.133 104.088 314.33 104.511C314.411 104.559 314.464 104.625 314.489 104.71C314.519 104.776 314.532 104.852 314.529 104.936C314.755 105.417 314.979 105.878 315.199 106.317C315.672 107.232 316.129 107.957 316.57 108.493C317.043 109.029 317.484 109.139 317.894 108.824C318.714 108.225 319.518 107.468 320.306 106.554C321.094 105.608 321.851 104.631 322.576 103.622C323.301 102.613 323.979 101.636 324.609 100.69C325.272 99.7125 325.886 98.8613 326.454 98.1362C326.674 97.8524 326.879 97.6632 327.069 97.5687C327.289 97.4426 327.62 97.4583 328.062 97.616C328.408 97.7421 328.345 98.2938 327.872 99.2711C327.4 100.248 326.659 101.51 325.65 103.054C324.641 104.599 323.427 106.365 322.008 108.351C320.621 110.306 319.14 112.355 317.563 114.499C316.87 115.446 316.345 116.194 315.835 116.921L315.834 116.923L315.833 116.923L315.832 116.925C315.206 117.817 314.601 118.679 313.733 119.843C312.188 121.955 310.769 123.91 309.476 125.707C307.864 128.239 308.458 129.204 308.813 129.78C308.952 130.005 309.054 130.171 308.975 130.348C308.849 130.632 308.577 130.843 308.577 130.843C308.419 131.127 306.874 130.536 306.874 130.536C306.874 130.536 305.222 129.139 305.597 127.036C305.881 126.122 307.065 123.831 307.632 122.822C308.137 122.128 308.72 121.34 309.382 120.457C310.044 119.575 310.738 118.644 311.463 117.667C312.219 116.69 312.929 115.776 313.591 114.924C313.93 114.471 314.029 114.305 314.118 114.156C314.202 114.015 314.276 113.891 314.537 113.553C315.073 112.859 315.467 112.339 315.719 111.992C315.971 111.709 315.971 111.267 315.719 110.668C315.467 110.069 315.073 109.376 314.537 108.587C314.178 108.005 313.78 107.39 313.342 106.744C312.96 107.134 312.492 107.56 311.936 108.02C311.021 108.745 309.981 109.454 308.814 110.148C307.648 110.842 306.403 111.472 305.078 112.04C303.754 112.607 302.462 113.001 301.201 113.222C299.94 113.411 298.742 113.395 297.607 113.175C296.503 112.922 295.589 112.355 294.864 111.472C294.517 111.094 294.249 110.715 294.06 110.337C293.902 109.959 293.634 109.628 293.256 109.344C292.783 109.785 292.215 110.369 291.553 111.094C290.891 111.787 290.166 112.497 289.378 113.222C288.621 113.915 287.802 114.577 286.919 115.208C286.068 115.839 285.185 116.311 284.271 116.627C283.356 116.942 282.426 117.052 281.48 116.958C280.566 116.863 279.683 116.453 278.832 115.728ZM279.352 114.12C279.636 115.129 280.267 115.602 281.244 115.539C282.221 115.444 283.356 114.956 284.649 114.073C285.942 113.19 287.281 111.992 288.669 110.479C290.056 108.934 291.301 107.232 292.405 105.372C293.508 103.48 294.344 101.494 294.911 99.413C295.51 97.3322 295.668 95.283 295.384 93.2652C294.627 92.6662 293.681 92.6504 292.546 93.2179C291.411 93.7539 290.198 94.6524 288.905 95.9135C287.644 97.1431 286.383 98.6248 285.122 100.359C283.892 102.061 282.805 103.795 281.859 105.561C280.913 107.295 280.188 108.934 279.683 110.479C279.211 112.024 279.1 113.238 279.352 114.12Z" fill="white"/>
</svg>
