<svg width="225" height="96" viewBox="0 0 225 96" fill="none" xmlns="http://www.w3.org/2000/svg">
<path fill-rule="evenodd" clip-rule="evenodd" d="M65.8652 50.2799C62.3262 50.2799 59.1448 49.4893 56.3212 47.9081C53.4975 46.3268 50.8997 44.1996 48.5279 41.5266C46.156 38.8535 43.8406 35.9169 41.5817 32.7168C40.8663 31.7002 40.151 30.6649 39.4357 29.6107C38.7204 28.5189 37.9862 27.4083 37.2332 26.2788C34.5225 29.2531 31.793 31.9073 29.0446 34.2415C26.5538 36.357 24.233 37.9623 22.0823 39.0573C21.653 39.2759 21.1672 39.3562 20.6895 39.2938C20.5693 39.2782 20.4451 39.2611 20.3262 39.2434C19.8626 39.1743 19.6459 38.8432 19.6459 38.3745C19.6459 38.1126 19.7987 37.9022 20.0282 37.7758C22.0931 36.638 24.4774 34.8952 27.181 32.5473C30.0423 30.0625 32.9601 27.2765 35.9343 24.1893C35.9343 24.1893 36.8003 23.2669 37.0638 23.0033L38.0803 21.8739C40.904 18.749 43.5959 15.4924 46.156 12.104C47.1166 10.8326 48.0486 9.57185 48.9357 8.31571L49.1306 8.07214C49.5355 7.56601 50.3345 8.0316 50.0938 8.63341L50.6365 7.79398C49.8796 9.06738 49.0826 10.3723 48.2455 11.7087C46.1372 15.0971 43.7841 18.4102 41.1864 21.648C40.8099 22.0998 40.4334 22.5704 40.0569 23.0598C39.718 23.5116 38.9324 24.3399 38.5182 24.754C38.5182 24.7917 38.3439 25.0552 38.3062 25.0929C38.9462 26.0717 39.5675 27.0318 40.1698 27.973C40.7722 28.8766 41.3934 29.8178 42.0334 30.7967C44.0288 33.8086 46.156 36.5758 48.4149 39.0982C50.7115 41.6584 53.2528 43.729 56.0388 45.3103C58.8625 46.8915 62.0626 47.7575 65.6393 47.9081C66.5052 47.9457 67.5217 47.8516 68.6888 47.6257C69.4971 47.4741 70.3224 47.2294 71.1646 46.8914C71.4733 46.7558 71.8783 46.5742 72.4161 46.3268C76.2186 44.5573 85.1801 41.4391 89.2085 40.1214C93.2746 38.8037 97.3031 37.7872 101.294 37.0718C105.285 36.3189 109.106 35.9424 112.758 35.9424C116.222 35.9424 118.65 36.5448 120.043 37.7495C121.474 38.9166 122.189 40.4979 122.189 42.4933C122.189 44.0745 121.831 45.844 121.116 47.8017C120.438 49.7218 119.554 51.7361 118.462 53.8444C117.52 55.6892 116.636 57.3457 115.807 58.814C115.017 60.2447 114.283 61.5624 113.605 62.7672C115.262 60.6212 117.012 58.5128 118.857 56.4422C120.702 54.3338 122.565 52.4326 124.448 50.7384C126.368 49.0065 128.232 47.6323 130.039 46.6158C131.884 45.5993 133.578 45.091 135.121 45.091C136.213 45.091 136.966 45.3734 137.38 45.9381C137.794 46.5029 138.001 47.237 138.001 48.1406C138.001 49.2324 137.757 50.4936 137.267 51.9243C136.816 53.3173 136.251 54.7103 135.573 56.1033C134.895 57.4587 134.274 58.6446 133.709 59.6611C132.994 60.9412 132.316 62.1648 131.676 63.3319C131.074 64.499 130.434 65.6473 129.756 66.7768C130.698 65.9485 131.921 64.7626 133.427 63.219C134.933 61.6754 136.627 59.9623 138.51 58.0799C140.392 56.1598 142.35 54.2397 144.383 52.3196C146.416 50.3619 148.43 48.5736 150.426 46.9547C152.459 45.2981 154.341 43.9992 156.073 43.058C156.299 42.9074 156.581 42.9262 156.92 43.1145C157.259 43.3027 157.56 43.5663 157.824 43.9051C158.087 44.2439 158.219 44.5639 158.219 44.8651C158.219 45.2793 158.106 45.7875 157.88 46.3899C157.692 46.9547 157.334 47.5194 156.807 48.0841L153.137 55.5951L149.24 64.6308C148.902 65.6456 148.013 68.0528 146.941 70.9538C145.18 75.7229 142.925 81.8265 141.815 85.272C141.344 86.7345 141.159 88.2629 141.182 89.7994C141.204 91.297 141.313 92.572 141.771 93.5889C142.179 94.5197 142.519 94.9643 142.725 95.1706C142.841 95.2876 142.937 95.4464 142.937 95.6116C142.937 95.7954 142.814 95.9559 142.632 95.978C142.06 96.0473 140.812 96.0278 140.021 94.7556C138.966 93.0991 138.357 90.8958 138.357 88.5615C138.357 85.2082 140.857 79.2307 143.142 73.7673C144.321 70.9498 145.442 68.2691 146.134 66.1556C146.134 66.1556 151.486 53.9788 153.895 48.5059C154.643 46.8051 154.595 46.0352 153.074 47.1029C151.967 47.8802 150.716 48.7899 150.087 49.2701C148.656 50.3619 147.075 51.6984 145.343 53.2797C143.611 54.8609 141.86 56.5551 140.091 58.3623C138.359 60.1317 136.703 61.8636 135.121 63.5578C133.578 65.252 132.241 66.7768 131.112 68.1321C130.02 69.4498 129.267 70.4475 128.853 71.1252C128.665 71.4264 128.363 71.577 127.949 71.577C127.46 71.577 126.952 71.3323 126.424 70.8428C125.935 70.3534 125.69 69.8075 125.69 69.2051C125.69 68.9792 125.973 68.4145 126.537 67.5109C127.102 66.5697 127.78 65.4214 128.57 64.066C129.399 62.673 130.17 61.2236 130.886 59.7176C131.112 59.2282 131.432 58.5317 131.846 57.6281C132.26 56.7245 132.674 55.7457 133.088 54.6915C133.54 53.5997 133.917 52.5455 134.218 51.529C134.519 50.4748 134.67 49.5712 134.67 48.8183C134.67 48.2159 134.557 47.7453 134.331 47.4064C134.105 47.0299 133.728 46.8417 133.201 46.8417C132.486 46.8417 131.488 47.1994 130.208 47.9147C128.439 48.8936 126.575 50.3054 124.617 52.1502C122.66 53.9573 120.702 56.0468 118.744 58.4187C116.824 60.753 114.998 63.2378 113.266 65.8732C111.534 68.471 110.01 71.0876 108.692 73.723C107.374 76.3207 106.358 78.7867 105.642 81.121C105.454 81.3845 105.172 81.6481 104.795 81.9116C104.419 82.1751 104.042 82.3069 103.666 82.3069C103.402 82.3069 103.157 82.194 102.932 81.9681C102.706 81.7422 102.593 81.3469 102.593 80.7821C102.593 80.4809 102.687 80.1045 102.875 79.6527C103.063 79.2009 103.252 78.6738 103.44 78.0714C103.59 77.6196 104.061 76.6219 104.852 75.0783C105.642 73.5347 106.64 71.6335 107.845 69.3745C109.049 67.0779 110.348 64.5931 111.741 61.9201C113.172 59.2093 114.565 56.4798 115.92 53.7314C116.862 51.849 117.652 49.9289 118.292 47.9712C118.932 45.9758 119.252 44.1686 119.252 42.5497C119.252 40.8932 118.744 39.5567 117.728 38.5401C116.749 37.486 114.998 36.9589 112.476 36.9589C108.974 36.9589 105.303 37.3354 101.463 38.0883C97.6607 38.8037 93.8394 39.8202 89.9992 41.1379C86.6447 42.2671 78.8704 45.3249 74.6035 47.2188C71.9558 48.5661 68.3156 50.2799 65.8652 50.2799ZM54.329 2.08292C55.8778 2.20095 57.4266 2.39763 58.9754 2.67298C60.7073 2.97417 62.2697 3.42595 63.6627 4.02833C65.0557 4.59307 66.1663 5.34604 66.9946 6.28727C67.8605 7.19084 68.2935 8.33913 68.2935 9.73213C68.2935 11.7652 67.6723 13.5911 66.4299 15.21C65.2251 16.8289 63.6439 18.2408 61.6861 19.4455C59.7284 20.6503 57.5824 21.648 55.2482 22.4386C52.9516 23.1916 50.6738 23.7751 48.4149 24.1893C46.1936 24.5658 44.2359 24.754 42.5417 24.754C41.9393 24.754 41.3181 24.7352 40.6781 24.6975C40.4475 24.6687 40.2162 24.7183 39.9652 24.772C39.5605 24.8587 39.1047 24.9563 38.5182 24.754C38.7274 24.8262 38.9629 24.9172 39.2171 25.0155L39.2172 25.0155C39.9673 25.3055 40.8793 25.6581 41.7511 25.7705C42.9558 25.9211 44.1794 25.9964 45.4218 25.9964C47.116 25.9964 49.0738 25.7894 51.2951 25.3752C53.5163 24.9234 55.7753 24.2646 58.0718 23.3987C60.3684 22.5327 62.4768 21.4598 64.3969 20.1797C66.3546 18.8996 67.9358 17.4313 69.1406 15.7748C70.3454 14.0806 70.9477 12.217 70.9477 10.1839C70.9477 8.56502 70.4583 7.20966 69.4794 6.11784C68.5382 4.98838 67.2582 4.08481 65.6393 3.40713C64.058 2.72945 62.2885 2.20237 60.3308 1.82588C58.373 1.41174 56.3965 1.12935 54.4011 0.978754L53.3281 0.922305C51.9727 0.809357 50.655 0.752884 49.375 0.752884C48.1325 0.715235 46.9654 0.696411 45.8736 0.696411H43.6147C40.9793 0.696411 38.1368 0.865831 35.0872 1.20467C32.0753 1.54351 29.0258 2.07059 25.9386 2.78592C22.8514 3.50125 19.8771 4.42365 17.0158 5.55311C14.1545 6.64493 11.5379 7.94381 9.16601 9.44977C6.83178 10.9557 4.87404 12.6687 3.29279 14.5888C1.71154 16.5089 0.676196 18.6549 0.186761 21.0268C0.0738149 21.5915 0.0173416 22.1562 0.0173416 22.721C0.0173416 24.114 0.337357 25.3941 0.977387 26.5612C1.65507 27.6906 2.48334 28.6318 3.46221 29.3848C4.44108 30.1002 5.40113 30.5331 6.34235 30.6837C6.64354 30.7214 6.9259 30.6837 7.18945 30.5708C7.49064 30.4578 7.64123 30.326 7.64123 30.1755C7.64123 29.9872 7.41534 29.8743 6.96355 29.8366C5.83409 29.6484 4.76109 29.0083 3.74458 27.9165C2.72806 26.8247 2.2198 25.4693 2.2198 23.8504C2.2198 23.2481 2.2951 22.7022 2.44569 22.2127C2.97277 19.7656 4.04577 17.5819 5.66467 15.6618C7.28357 13.7041 9.29778 11.9722 11.7073 10.4663C14.1168 8.96033 16.7523 7.66145 19.6136 6.56963C22.5125 5.47781 25.5056 4.59307 28.5928 3.91539C31.68 3.20006 34.7108 2.67297 37.685 2.33413C40.6969 1.99529 43.4829 1.82588 46.043 1.82588C46.909 1.82588 47.9255 1.8447 49.0926 1.88235C50.1 1.88235 51.2647 1.95247 52.3878 2.02009L52.388 2.0201L52.3888 2.02014C52.4257 2.02237 52.4626 2.02459 52.4995 2.02681L53.889 2.0385L54.3303 2.08086L54.329 2.08292ZM62.0607 34.9577C61.4119 34.7414 60.9145 34.417 60.5684 33.9844C60.244 33.5303 60.0277 33.0328 59.9196 32.4922C59.8115 31.9515 59.7898 31.3892 59.8547 30.8052C59.9412 30.1997 60.071 29.6265 60.244 29.0858C60.8928 28.3938 61.6173 27.6044 62.4176 26.7177C63.2394 25.8093 64.1045 24.9226 65.0128 24.0575C65.9212 23.1924 66.862 22.3922 67.8352 21.6569C68.8301 20.8999 69.8357 20.3268 70.8522 19.9375C71.1982 19.7861 71.4686 19.7969 71.6632 19.9699C71.8795 20.1213 72.0309 20.37 72.1174 20.7161C72.2039 21.0621 72.2364 21.4622 72.2147 21.9164C72.2147 22.3706 72.1823 22.8139 72.1174 23.2465C72.0525 23.679 71.966 24.0683 71.8579 24.4144C71.7497 24.7604 71.6416 24.9983 71.5335 25.1281C71.2739 25.4308 70.7657 25.7877 70.0087 26.1986C69.2734 26.6095 68.4516 27.0637 67.5432 27.5611C66.6349 28.0369 65.7265 28.5344 64.8182 29.0534C63.9098 29.5725 63.1637 30.0915 62.5798 30.6106C61.9958 31.108 61.6498 31.6054 61.5417 32.1029C61.4335 32.6003 61.7363 33.0545 62.45 33.4654C63.1853 33.5519 64.072 33.5195 65.1102 33.3681C66.1699 33.195 67.2405 32.9788 68.3218 32.7192C69.4248 32.4381 70.4846 32.1569 71.501 31.8758C72.5175 31.573 73.3502 31.3351 73.999 31.1621L74.3883 31.5189C73.9125 32.1461 73.1339 32.7192 72.0525 33.2383C70.9712 33.7574 69.8033 34.1899 68.5489 34.5359C67.2945 34.8603 66.0726 35.0766 64.8831 35.1848C63.6936 35.2713 62.7528 35.1956 62.0607 34.9577ZM69.8141 22.5652C69.7925 22.5436 69.6303 22.6409 69.3275 22.8572C69.0247 23.0518 68.6462 23.3222 68.1921 23.6682C67.7595 23.9926 67.2837 24.3603 66.7646 24.7712C66.2672 25.1605 65.8022 25.5282 65.3697 25.8742C64.9588 26.2202 64.6127 26.523 64.3316 26.7825C64.0504 27.0204 63.9315 27.1394 63.9747 27.1394C64.3208 27.2043 64.7641 27.161 65.3048 27.0096C65.8671 26.8366 66.4402 26.5987 67.0242 26.2959C67.6297 25.9931 68.2029 25.6579 68.7435 25.2903C69.2842 24.901 69.706 24.5225 70.0087 24.1548C70.3332 23.7872 70.4954 23.4627 70.4954 23.1816C70.517 22.9004 70.2899 22.695 69.8141 22.5652ZM73.9341 34.0493C73.9341 34.1358 73.9557 34.1899 73.999 34.2115C73.999 34.2764 74.0422 34.4062 74.1288 34.6008C74.2369 34.7955 74.3126 34.9144 74.3558 34.9577C76.5402 35.0658 78.4867 34.936 80.1952 34.5684C81.9038 34.2007 83.3852 33.6817 84.6396 33.0112C85.894 32.3408 86.9321 31.573 87.754 30.7079C88.5758 29.8428 89.1922 28.9561 89.6031 28.0477C90.014 27.1394 90.2303 26.2635 90.2519 25.42C90.2735 24.5766 90.1113 23.852 89.7653 23.2465C89.4409 22.6409 88.9326 22.1976 88.2406 21.9164C87.5485 21.6136 86.6942 21.5595 85.6777 21.7542C85.0289 21.884 84.4558 22.1543 83.9584 22.5652C83.4609 22.9761 82.9743 23.4303 82.4985 23.9277C82.0443 24.4035 81.5685 24.8577 81.0711 25.2903C80.5953 25.7228 80.0546 26.0148 79.4491 26.1662C79.3626 25.6255 79.4058 25.074 79.5788 24.5117C79.7519 23.9494 79.9789 23.3871 80.2601 22.8247C80.5413 22.2624 80.844 21.7001 81.1684 21.1378C81.5145 20.5539 81.8064 19.9916 82.0443 19.4509C82.3039 18.8886 85.9805 8.97987 86.067 8.46081C86.1535 7.92013 86.0995 7.40107 85.9048 6.90364C85.6885 6.38459 85.4398 6.17913 85.1587 6.28727C84.8775 6.37378 84.5639 6.69818 84.2179 7.2605C83.8719 7.80118 83.5042 8.5257 79.6113 18.8021C79.222 19.7104 78.8219 20.7161 78.411 21.8191C78.0217 22.9004 77.6216 24.0359 77.2106 25.2254C76.8214 26.3932 76.4321 27.5287 76.0428 28.6317C75.6535 29.713 75.2858 30.7187 74.9398 31.6487C74.5937 32.557 74.2801 33.2924 73.999 33.8547C73.9557 33.8979 73.9341 33.9628 73.9341 34.0493ZM76.8538 32.9463C76.8538 32.6652 76.8646 32.4813 76.8862 32.3948C77.1025 31.7676 77.4269 31.0864 77.8595 30.351C78.3136 29.6157 78.8435 28.8912 79.4491 28.1775C80.0546 27.4638 80.7143 26.7825 81.428 26.1337C82.1633 25.4849 82.9203 24.9334 83.6988 24.4792C84.4774 24.0034 85.256 23.6466 86.0346 23.4087C86.8132 23.1708 87.5593 23.1059 88.273 23.214C88.3163 23.2357 88.3811 23.2897 88.4677 23.3762C88.5758 23.4627 88.6407 23.5276 88.6623 23.5709C88.8137 25.1281 88.5542 26.5555 87.8837 27.8531C87.2133 29.1507 86.3049 30.2537 85.1587 31.1621C84.0124 32.0488 82.704 32.7084 81.2333 33.141C79.7843 33.5519 78.3353 33.66 76.8862 33.4654C76.8646 33.3789 76.8538 33.2059 76.8538 32.9463ZM93.9502 34.9577C93.3014 34.7414 92.804 34.417 92.4579 33.9844C92.1335 33.5303 91.9172 33.0328 91.8091 32.4922C91.701 31.9515 91.6793 31.3892 91.7442 30.8052C91.8307 30.1997 91.9605 29.6265 92.1335 29.0858C92.7823 28.3938 93.5068 27.6044 94.3071 26.7177C95.1289 25.8093 95.994 24.9226 96.9023 24.0575C97.8107 23.1924 98.7515 22.3922 99.7247 21.6569C100.72 20.8999 101.725 20.3268 102.742 19.9375C103.088 19.7861 103.358 19.7969 103.553 19.9699C103.769 20.1213 103.92 20.37 104.007 20.7161C104.093 21.0621 104.126 21.4622 104.104 21.9164C104.104 22.3706 104.072 22.8139 104.007 23.2465C103.942 23.679 103.856 24.0683 103.747 24.4144C103.639 24.7604 103.531 24.9983 103.423 25.1281C103.163 25.4308 102.655 25.7877 101.898 26.1986C101.163 26.6095 100.341 27.0637 99.4327 27.5611C98.5244 28.0369 97.616 28.5344 96.7077 29.0534C95.7993 29.5725 95.0532 30.0915 94.4693 30.6106C93.8853 31.108 93.5393 31.6054 93.4312 32.1029C93.323 32.6003 93.6258 33.0545 94.3395 33.4654C95.0748 33.5519 95.9615 33.5195 96.9997 33.3681C98.0594 33.195 99.13 32.9788 100.211 32.7192C101.314 32.4381 102.374 32.1569 103.391 31.8758C104.407 31.573 105.24 31.3351 105.888 31.1621L106.049 31.3093C106.056 31.0822 106.078 30.8493 106.116 30.6106C106.289 29.6157 106.667 28.5776 107.251 27.4962C107.835 26.3932 108.527 25.3443 109.327 24.3495C110.127 23.3546 110.971 22.4571 111.858 21.6569C112.744 20.8567 113.577 20.2511 114.356 19.8402C115.156 19.4293 115.837 19.2671 116.399 19.3536C116.962 19.4401 117.308 19.8726 117.437 20.6512C117.502 20.9972 117.459 21.3757 117.308 21.7866C117.178 22.1975 116.983 22.5977 116.724 22.9869C116.486 23.3546 116.205 23.7006 115.88 24.0251C115.578 24.3278 115.275 24.5549 114.972 24.7063C114.691 24.8577 114.431 24.9118 114.193 24.8685C113.977 24.8253 113.837 24.6414 113.772 24.317C114.031 23.8845 114.323 23.4519 114.648 23.0194C114.972 22.5652 115.286 22.1435 115.588 21.7542C115.459 21.5163 115.21 21.4622 114.842 21.592C114.475 21.7218 114.031 21.9813 113.512 22.3706C112.993 22.7599 112.442 23.2573 111.858 23.8629C111.295 24.4468 110.744 25.0848 110.203 25.7769C109.662 26.4689 109.176 27.1935 108.743 27.9504C108.332 28.6857 108.03 29.3994 107.835 30.0915C107.64 30.7836 107.586 31.4324 107.673 32.038C107.781 32.6219 108.094 33.0977 108.614 33.4654C109.327 33.5303 110.149 33.4654 111.079 33.2707C112.009 33.0545 112.961 32.7841 113.934 32.4597C114.907 32.1353 115.869 31.7893 116.821 31.4216C117.794 31.0323 118.67 30.6755 119.449 30.351C120.249 30.0266 120.919 29.7779 121.46 29.6049C122.022 29.4103 122.39 29.3562 122.563 29.4427C122.974 29.659 122.996 29.9726 122.628 30.3835C122.282 30.7944 121.687 31.2378 120.844 31.7136C120 32.1894 118.995 32.6652 117.827 33.141C116.681 33.5951 115.523 33.9953 114.356 34.3413C113.188 34.6657 112.085 34.9036 111.047 35.055C110.008 35.1848 109.197 35.1523 108.614 34.9577C107.511 34.59 106.775 34.0169 106.408 33.2383C106.207 32.7861 106.09 32.3011 106.056 31.7833C105.574 32.3081 104.87 32.7931 103.942 33.2383C102.861 33.7574 101.693 34.1899 100.438 34.5359C99.184 34.8603 97.9621 35.0766 96.7726 35.1848C95.5831 35.2713 94.6423 35.1956 93.9502 34.9577ZM101.704 22.5652C101.682 22.5436 101.52 22.6409 101.217 22.8572C100.914 23.0518 100.536 23.3222 100.082 23.6682C99.649 23.9926 99.1732 24.3603 98.6541 24.7712C98.1567 25.1605 97.6917 25.5282 97.2592 25.8742C96.8483 26.2202 96.5022 26.523 96.2211 26.7825C95.9399 27.0204 95.821 27.1394 95.8642 27.1394C96.2103 27.2043 96.6536 27.161 97.1943 27.0096C97.7566 26.8366 98.3297 26.5987 98.9137 26.2959C99.5192 25.9931 100.092 25.6579 100.633 25.2903C101.174 24.901 101.595 24.5225 101.898 24.1548C102.223 23.7872 102.385 23.4627 102.385 23.1816C102.406 22.9004 102.179 22.695 101.704 22.5652ZM125.336 34.9577C124.233 34.59 123.498 34.0169 123.13 33.2383C122.784 32.4597 122.687 31.5838 122.838 30.6106C123.011 29.6157 123.389 28.5776 123.973 27.4962C124.557 26.3932 125.249 25.3443 126.05 24.3495C126.85 23.3546 127.693 22.4571 128.58 21.6569C129.467 20.8567 130.299 20.2511 131.078 19.8402C131.878 19.4293 132.559 19.2671 133.122 19.3536C133.684 19.4401 134.03 19.8726 134.16 20.6512C134.225 20.9972 134.181 21.3757 134.03 21.7866C133.9 22.1975 133.706 22.5977 133.446 22.9869C133.208 23.3546 132.927 23.7006 132.603 24.0251C132.3 24.3278 131.997 24.5549 131.694 24.7063C131.413 24.8577 131.154 24.9118 130.916 24.8685C130.699 24.8253 130.559 24.6414 130.494 24.317C130.754 23.8845 131.045 23.4519 131.37 23.0194C131.694 22.5652 132.008 22.1435 132.311 21.7542C132.181 21.5163 131.932 21.4622 131.565 21.592C131.197 21.7218 130.754 21.9813 130.234 22.3706C129.715 22.7599 129.164 23.2573 128.58 23.8629C128.018 24.4468 127.466 25.0848 126.925 25.7769C126.385 26.4689 125.898 27.1935 125.466 27.9504C125.055 28.6857 124.752 29.3994 124.557 30.0915C124.363 30.7836 124.309 31.4324 124.395 32.038C124.503 32.6219 124.817 33.0977 125.336 33.4654C126.05 33.5303 126.871 33.4654 127.801 33.2707C128.731 33.0545 129.683 32.7841 130.656 32.4597C131.629 32.1353 132.592 31.7893 133.543 31.4216C134.517 31.0323 135.393 30.6755 136.171 30.351C136.971 30.0266 137.642 29.7779 138.182 29.6049C138.745 29.4103 139.112 29.3562 139.285 29.4427C139.696 29.659 139.718 29.9726 139.35 30.3835C139.004 30.7944 138.41 31.2378 137.566 31.7136C136.723 32.1894 135.717 32.6652 134.549 33.141C133.403 33.5951 132.246 33.9953 131.078 34.3413C129.91 34.6657 128.807 34.9036 127.769 35.055C126.731 35.1848 125.92 35.1523 125.336 34.9577ZM139.722 32.6544C139.787 33.4978 140.079 34.1358 140.598 34.5684C141.182 35.0658 141.788 35.347 142.415 35.4118C143.064 35.4767 143.702 35.401 144.329 35.1848C144.956 34.9685 145.562 34.6441 146.146 34.2115C146.751 33.779 147.314 33.3248 147.833 32.849C148.373 32.3516 148.871 31.865 149.325 31.3892C149.779 30.8917 150.168 30.4916 150.493 30.1888C150.752 30.3835 150.936 30.6106 151.044 30.8701C151.174 31.1296 151.358 31.3892 151.596 31.6487C152.093 32.2543 152.72 32.6435 153.477 32.8166C154.256 32.968 155.078 32.9788 155.943 32.849C156.808 32.6976 157.695 32.4273 158.603 32.038C158.603 32.038 159.186 31.6487 159.538 31.2283C159.538 31.2283 160.1 30.133 159.538 30.5223C158.997 30.9115 156.714 31.9344 155.301 31.9344C154.421 31.9319 154.148 31.8535 153.783 31.7484C153.674 31.7171 153.556 31.6834 153.413 31.6487C152.785 31.4973 152.418 31.0107 152.31 30.1888C152.223 29.54 152.245 28.902 152.374 28.2748C152.526 27.6476 152.71 27.0313 152.926 26.4257C153.164 25.8201 153.402 25.2254 153.64 24.6414C153.878 24.0359 154.051 23.4519 154.159 22.8896C154.267 22.3057 154.278 21.7434 154.191 21.2027C154.105 20.6404 153.845 20.0889 153.413 19.5482C152.72 18.6831 151.953 18.1965 151.109 18.0884C150.266 17.9586 149.401 18.0992 148.514 18.5101C147.627 18.8994 146.74 19.5158 145.854 20.3592C144.967 21.1811 144.145 22.1219 143.388 23.1816C142.631 24.2197 141.961 25.3227 141.377 26.4906C140.815 27.6368 140.382 28.7398 140.079 29.7995C139.798 30.8593 139.679 31.8109 139.722 32.6544ZM142.253 34.4386C141.582 34.4819 141.15 34.1575 140.955 33.4654C140.782 32.8598 140.858 32.0272 141.182 30.9674C141.528 29.9077 142.026 28.7831 142.675 27.5936C143.323 26.3824 144.07 25.1929 144.913 24.0251C145.778 22.8356 146.643 21.8191 147.508 20.9756C148.395 20.1105 149.228 19.4941 150.006 19.1265C150.785 18.7372 151.434 18.748 151.953 19.1589C152.147 20.5431 152.039 21.9488 151.628 23.3762C151.239 24.8036 150.666 26.1662 149.909 27.4638C149.152 28.7398 148.298 29.9077 147.346 30.9674C146.394 32.0055 145.475 32.8274 144.589 33.4329C143.702 34.0385 142.923 34.3737 142.253 34.4386ZM161.45 78.8633C161.796 79.2526 162.261 79.5662 162.845 79.8041C163.299 79.9987 163.699 80.1285 164.045 80.1934C164.391 80.2799 164.846 80.2691 165.408 80.1609C165.43 80.1609 165.527 80.0961 165.7 79.9663C165.873 79.8149 166.035 79.6635 166.187 79.5121C166.36 79.3607 166.489 79.2201 166.576 79.0904C166.662 78.9606 166.63 78.8957 166.479 78.8957H163.202L162.099 77.5981C161.71 77.1223 161.537 76.56 161.58 75.9112C161.623 75.2623 161.775 74.5811 162.034 73.8674C162.294 73.1537 162.596 72.44 162.942 71.7263C163.31 70.991 163.613 70.3097 163.851 69.6825C164.11 69.0553 164.24 68.5038 164.24 68.028C164.24 67.5306 164.013 67.1737 163.559 66.9575C163.299 67.1737 162.888 67.6063 162.326 68.2551C161.764 68.9039 161.115 69.6609 160.38 70.526C159.644 71.3694 158.844 72.2561 157.979 73.1861C157.135 74.0945 156.303 74.9055 155.481 75.6192C154.681 76.3329 153.924 76.8952 153.21 77.3061C152.518 77.6954 151.934 77.7927 151.458 77.5981C151.329 77.1007 151.404 76.5275 151.685 75.8787C151.967 75.2299 152.334 74.5594 152.788 73.8674C153.264 73.1537 153.762 72.44 154.281 71.7263C154.821 71.0126 155.254 70.3421 155.578 69.7149C155.924 69.0877 156.119 68.5362 156.162 68.0604C156.227 67.563 156.011 67.1954 155.513 66.9575C155.297 67.1088 154.984 67.4333 154.573 67.9307C154.183 68.4065 153.751 68.9904 153.275 69.6825C152.821 70.3529 152.345 71.0883 151.848 71.8885C151.372 72.6671 150.95 73.424 150.582 74.1594C150.215 74.8947 149.934 75.5759 149.739 76.2031C149.566 76.8087 149.534 77.2737 149.642 77.5981C149.966 78.5497 150.409 79.112 150.972 79.285C151.556 79.458 152.194 79.404 152.886 79.1228C153.578 78.8417 154.292 78.4091 155.027 77.8252C155.784 77.2196 156.487 76.6357 157.136 76.0734C157.784 75.5111 158.357 75.0461 158.855 74.6784C159.352 74.2891 159.698 74.1593 159.893 74.2891C159.979 74.8514 160.077 75.4137 160.185 75.976C160.293 76.5167 160.444 77.0358 160.639 77.5332C160.834 78.0306 161.104 78.474 161.45 78.8633ZM167.11 79.8041C167.067 79.7825 167.067 79.5337 167.11 79.0579C167.175 78.5605 167.261 77.9441 167.37 77.2088C167.478 76.4735 167.618 75.6624 167.791 74.7757C167.964 73.889 168.148 73.0455 168.343 72.2453C168.538 71.4235 168.743 70.7098 168.959 70.1042C169.197 69.477 169.424 69.0445 169.64 68.8066C169.792 68.6552 169.943 68.6552 170.095 68.8066C170.246 68.9363 170.397 69.1094 170.549 69.3256C170.7 69.5203 170.852 69.7041 171.003 69.8771C171.154 70.0285 171.317 70.0393 171.49 69.9096C172.095 69.0661 172.755 68.2659 173.469 67.5089C174.204 66.7304 175.015 66.0599 175.902 65.4976C175.988 65.4327 176.226 65.3354 176.615 65.2056C177.005 65.0542 177.448 64.9137 177.945 64.7839C178.443 64.6325 178.951 64.5136 179.47 64.4271C180.011 64.3189 180.465 64.2757 180.833 64.2973C181.222 64.2973 181.481 64.3946 181.611 64.5893C181.763 64.7623 181.698 65.0651 181.417 65.4976C180.119 65.5192 178.908 65.8977 177.783 66.633C176.659 67.3684 175.62 68.2767 174.669 69.3581C173.717 70.4394 172.852 71.6181 172.074 72.8941C171.295 74.1485 170.614 75.3164 170.03 76.3978C169.467 77.4791 168.992 78.3767 168.602 79.0904C168.235 79.8041 167.964 80.1609 167.791 80.1609C167.77 80.1609 167.672 80.1177 167.499 80.0312C167.326 79.923 167.197 79.8473 167.11 79.8041ZM178.64 79.0579C178.597 79.5337 178.597 79.7825 178.64 79.8041C178.726 79.8473 178.856 79.923 179.029 80.0312C179.202 80.1177 179.299 80.1609 179.321 80.1609C179.494 80.1609 179.764 79.8041 180.132 79.0904C180.521 78.3767 180.997 77.4791 181.56 76.3978C182.143 75.3164 182.825 74.1485 183.603 72.8941C184.382 71.6181 185.247 70.4394 186.199 69.3581C187.15 68.2767 188.188 67.3684 189.313 66.633C190.438 65.8977 191.649 65.5192 192.946 65.4976C193.227 65.0651 193.292 64.7623 193.141 64.5893C193.011 64.3946 192.752 64.2973 192.362 64.2973C191.995 64.2757 191.541 64.3189 191 64.4271C190.481 64.5136 189.973 64.6325 189.475 64.7839C188.978 64.9137 188.534 65.0542 188.145 65.2056C187.756 65.3354 187.518 65.4327 187.431 65.4976C186.545 66.0599 185.734 66.7304 184.998 67.5089C184.285 68.2659 183.625 69.0661 183.019 69.9096C182.846 70.0393 182.684 70.0285 182.533 69.8771C182.381 69.7041 182.23 69.5203 182.079 69.3256C181.927 69.1094 181.776 68.9363 181.624 68.8066C181.473 68.6552 181.322 68.6552 181.17 68.8066C180.954 69.0445 180.727 69.477 180.489 70.1042C180.273 70.7098 180.067 71.4235 179.873 72.2453C179.678 73.0455 179.494 73.889 179.321 74.7757C179.148 75.6624 179.008 76.4735 178.899 77.2088C178.791 77.9441 178.705 78.5605 178.64 79.0579ZM191.078 79.4148C190.559 78.9822 190.267 78.3442 190.202 77.5008C190.159 76.6573 190.278 75.7057 190.559 74.646C190.862 73.5862 191.294 72.4832 191.857 71.337C192.44 70.1691 193.111 69.0661 193.868 68.028C194.625 66.9683 195.447 66.0275 196.333 65.2056C197.22 64.3622 198.107 63.7458 198.994 63.3565C199.88 62.9456 200.745 62.805 201.589 62.9348C202.432 63.0429 203.2 63.5295 203.892 64.3946C204.325 64.9353 204.584 65.4868 204.671 66.0491C204.757 66.5898 204.746 67.1521 204.638 67.736C204.53 68.2983 204.357 68.8823 204.119 69.4878C203.881 70.0718 203.643 70.6665 203.406 71.2721C203.189 71.8777 203.005 72.494 202.854 73.1212C202.724 73.7484 202.703 74.3864 202.789 75.0353C202.897 75.8571 203.265 76.3437 203.892 76.4951C204.519 76.6465 205.265 76.6032 206.131 76.3653C207.017 76.1274 207.947 75.749 208.92 75.2299C209.894 74.7108 210.791 74.1918 211.613 73.6727C212.457 73.1537 213.149 72.6995 213.689 72.3102L213.993 72.1003C213.703 71.6296 213.428 71.1589 213.17 70.6882C212.824 69.9961 212.554 69.3148 212.359 68.6444C212.186 67.9739 212.186 67.3467 212.359 66.7628C212.597 66.5898 212.857 66.6979 213.138 67.0872C213.419 67.4549 213.711 67.9739 214.014 68.6444C214.338 69.2932 214.673 70.0177 215.019 70.8179C215.158 71.129 215.294 71.4296 215.429 71.72C215.485 71.753 215.521 71.7984 215.538 71.856C215.559 71.9019 215.568 71.9538 215.565 72.0116C215.721 72.3415 215.874 72.6573 216.025 72.959C216.349 73.5862 216.663 74.0837 216.966 74.4513C217.29 74.819 217.593 74.8947 217.874 74.6784C218.437 74.2675 218.988 73.7484 219.529 73.1212C220.069 72.4724 220.588 71.802 221.086 71.1099C221.583 70.4178 222.048 69.7474 222.481 69.0985C222.935 68.4281 223.357 67.8442 223.746 67.3467C223.897 67.1521 224.038 67.0223 224.168 66.9575C224.319 66.8709 224.546 66.8818 224.849 66.9899C225.087 67.0764 225.044 67.4549 224.719 68.1253C224.395 68.7958 223.887 69.6609 223.195 70.7206C222.502 71.7803 221.67 72.9915 220.697 74.354C219.745 75.6949 218.729 77.1007 217.647 78.5713C217.172 79.2216 216.811 79.7347 216.461 80.2338L216.461 80.2339C216.031 80.8468 215.615 81.4385 215.019 82.2372C213.96 83.6862 212.986 85.0271 212.1 86.2598C210.993 87.9974 211.401 88.6589 211.645 89.0543C211.74 89.2086 211.81 89.3224 211.755 89.4439C211.669 89.6385 211.483 89.7835 211.483 89.7835C211.374 89.9781 210.315 89.5728 210.315 89.5728C210.315 89.5728 209.181 88.6147 209.439 87.1721C209.633 86.5449 210.445 84.973 210.835 84.2809C211.181 83.8051 211.581 83.2645 212.035 82.6589C212.489 82.0533 212.965 81.4153 213.462 80.7449C213.981 80.0744 214.468 79.4472 214.922 78.8633C215.155 78.5526 215.223 78.4383 215.284 78.3364C215.341 78.2397 215.392 78.1542 215.571 77.9225C215.939 77.4467 216.209 77.0899 216.382 76.852C216.555 76.6573 216.555 76.3545 216.382 75.9436C216.209 75.5327 215.939 75.0569 215.571 74.5162C215.325 74.1165 215.052 73.6951 214.751 73.2517C214.49 73.5194 214.168 73.8112 213.787 74.1269C213.159 74.6243 212.446 75.111 211.646 75.5868C210.845 76.0626 209.991 76.4951 209.083 76.8844C208.174 77.2737 207.288 77.544 206.423 77.6954C205.557 77.8252 204.736 77.8144 203.957 77.663C203.2 77.49 202.573 77.1007 202.075 76.4951C201.838 76.2356 201.654 75.976 201.524 75.7165C201.416 75.457 201.232 75.2299 200.972 75.0353C200.648 75.338 200.259 75.7381 199.805 76.2356C199.35 76.7114 198.853 77.198 198.312 77.6954C197.793 78.1712 197.231 78.6254 196.625 79.0579C196.041 79.4905 195.436 79.8149 194.809 80.0312C194.181 80.2474 193.543 80.3231 192.895 80.2583C192.267 80.1934 191.662 79.9122 191.078 79.4148ZM191.435 78.3118C191.629 79.0039 192.062 79.3283 192.732 79.285C193.403 79.2201 194.181 78.8849 195.068 78.2794C195.955 77.6738 196.874 76.852 197.826 75.8138C198.777 74.7541 199.632 73.5862 200.389 72.3102C201.145 71.0126 201.719 69.65 202.108 68.2226C202.519 66.7952 202.627 65.3895 202.432 64.0053C201.913 63.5944 201.264 63.5836 200.486 63.9729C199.707 64.3405 198.875 64.9569 197.988 65.822C197.123 66.6655 196.258 67.682 195.393 68.8715C194.549 70.0393 193.803 71.2288 193.154 72.44C192.505 73.6295 192.008 74.7541 191.662 75.8138C191.338 76.8736 191.262 77.7062 191.435 78.3118Z" fill="white"/>
</svg>
