<?xml version="1.0" encoding="utf-8"?>
<!-- Generator: Adobe Illustrator 26.3.1, SVG Export Plug-In . SVG Version: 6.00 Build 0)  -->
<svg version="1.1"
	 id="ecoanimation" xmlns:inkscape="http://www.inkscape.org/namespaces/inkscape" xmlns:svg="http://www.w3.org/2000/svg" xmlns:sodipodi="http://sodipodi.sourceforge.net/DTD/sodipodi-0.dtd" sodipodi:docname="10477.eps"
	 xmlns="http://www.w3.org/2000/svg" xmlns:xlink="http://www.w3.org/1999/xlink" x="0px" y="0px" viewBox="0 0 4000 2666.7"
	 style="enable-background:new 0 0 4000 2666.7;" xml:space="preserve">
<style type="text/css">
	.st0{fill:#FFFFFF;}
	.st1{fill:#EBF3FA;}
	.st2{fill:#A8D29F;}
	.st3{fill:#F8FCFF;}
	.st4{fill:#79B27F;}
	.st5{fill:#739AF0;}
	.st6{fill:#83AFFC;}
	.st7{fill:#F99746;}
	.st8{fill:#2B478B;}
	.st9{fill:#D4DFFF;}
	.st10{display:none;fill:#CCDBFD;}
	.st11{fill:#F9DDBF;}
	.st12{fill:#FFF3E9;}
	.st13{fill:#ED9F4A;}
	.st14{fill:#EFCDAF;}
	.st15{fill:#E88338;}
	.st16{fill:#AEC3FF;}
	.st17{fill:#1D3F77;}
	.st18{fill:#2A4E96;}
	.st19{fill:#C0D8FB;}
	.st20{fill:#FFB27D;}
	.st21{fill:#E8945B;}
	.st22{fill:#415DA5;}
	.st23{fill:#2C3A64;}
	.st24{fill:#202E51;}
	.st25{fill:#739CF3;}
	.st26{fill:#5885D6;}
	.st27{fill:#35488B;}
	.st28{fill:#B84C42;}
	.st29{fill:#AA3E39;}
	.st30{fill:#1D2A4C;}
	.st31{fill:#233862;}
	.st32{display:none;fill:#1D3F77;}
</style>
<g id="ecoanimation_00000019641748833307746920000014641918125710750390_" transform="matrix(1.3333333,0,0,-1.3333333,0,2666.6667)" inkscape:label="ink_ext_XXXXXX" inkscape:groupmode="layer">
	<g id="ecoanimation_00000013189245188877556580000008518653471084241333_" transform="scale(0.1)">
		<path id="whitebackground" class="st0" d="M-36.5,451.9h30000v20000H-36.5V451.9z"/>
		<path id="bluebackground" class="st1" d="M28120.9,5667.2l-0.4-7.3c-10.9-212.6-39.5-413.5-81.4-602.4
			c-221.5-999.4-799.3-1637.9-943.4-1792.6l-0.3-0.3c-19.5-21-31.5-33-33-36.1c-626.1,0-4673.7-0.7-9286.2,0.6
			c-1243.3,0.3-2527.6,0.8-3797.1,1.6c-576.5,0.3-1149.9,0.6-1715,1c-411.5,0.3-818.6,0.7-1219.2,1c-1520.8,1.3-2949,3-4173.9,5.2
			c-655.7,1.2-1253.1,2.5-1775.4,4.1c-1390.7,3.9-2247.7,8.9-2250.3,15.4l-1.5,4.5c0,0-1.3,1.3-1.4,2.7l-0.1,0.3
			c0,1.5-1.6,3.1-1.6,3.1c-3.7,8.6-804.9,1116.6-1043.1,2636.7c-55.2,352.5-80.2,727.1-57.9,1115.3v6.1
			c83.4,1431.7,808.4,3045.3,3024.1,4414.8c2117.2,1310.4-133.5,2174.8,1550,3633.8c1111.6,961.8,2281.9,759.5,3484.5,557.2
			c890.9-149.8,1799.6-299.7,2715.3,23.7c379.2,134.9,761.4,350.3,1143.6,680.9c215.3,186.5,450.4,350.3,702.1,489.9
			c39.5,22.7,77.4,44,116.8,63.7c151.7,78.8,307.9,150.1,470.2,213.8c107.6,42.5,218.3,81.9,330.6,118.3
			c178.9,59.1,362.4,109.2,549,150.1c265.4,60.7,539.9,104.7,818.9,135c121.4,13.7,244.3,24.3,368.6,31.9
			c2277.5,143.6,4826-615.3,6275.5-1755.8c80.4-63.2,157.3-127.6,230.7-193.1c30.4-27.2,72.4-66.7,122-117.8
			c338.3-348.6,1027.2-1235.8,742.8-2435.5c-24.3-102.3-55.6-207-94.8-313.7c-56.2-152.8-128.5-309.9-219.5-471
			c-141-250.2-119.8-495.9,7.6-744.7l1.4-1.5h0.1c7-13.4,14.3-26.8,21.9-40.2c26.6-46.9,57-93.9,90.8-141
			c19.2-27,39.6-53.9,61.1-80.8c5.3-6.7,10.7-13.4,16.2-20.2c11-13.5,22.2-26.9,33.7-40.4v-0.1c9.2-10.8,18.5-21.5,28-32.3
			c9.4-10.8,19-21.6,28.9-32.5c9.8-10.8,19.7-21.5,29.8-32.3c10-10.8,20.2-21.6,30.6-32.5c10.4-10.8,20.9-21.6,31.5-32.4
			c10.6-10.8,21.4-21.6,32.3-32.4h0.1c183-181.7,233.5-410.8,280.9-678.5c18.5-104.3,36.5-214.6,61.8-330.1
			c1.1-5.1,2.3-10.3,3.4-15.5c21.7-97.3,48.8-198.3,85.8-302.7c1.7-5.1,3.6-10.3,5.5-15.5c32.8-90.7,73.2-184,124.2-279.7
			c4.7-8.9,9.5-17.8,14.5-26.7v-0.1c3.8-7.1,7.7-14.1,11.8-21.2c2.9-5.2,5.8-10.3,8.8-15.5c5-8.8,10.2-17.6,15.5-26.4l0.1-0.2
			c2.1-3.6,4.3-7.4,6.7-11.1c36.4-60.7,77.5-122.3,123.9-184.7c20.2-27.4,41.5-55,63.9-82.7c119.6-148.1,269.6-300.8,459.2-457.2
			c249.8-206.2,568.5-419,977.1-637c65-34.7,127.7-69.9,187.9-105.5c568-335.5,923.9-708.3,1051.2-1129c18-59.4,48.4-175.5,77.7-315
			C28088.9,6141,28131,5872,28120.9,5667.2"/>
		<path id="backgroundgrass" class="st2" d="M28119.9,5667.5c0.3-2.5,0.4-5,0.6-7.5c-10.9-212.6-39.5-413.5-81.4-602.4l-1124-176.3
			l-232-36.4l-132-20.7l-914.5-143.5l-81.8-12.8l-183.9-28.9l-47.8-7.5h-0.3c0,0-39.4-4.6-107.8-11.1c-5.7-0.6-11.7-1.1-17.8-1.7
			c-45.5-4.2-101.9-9.1-166.6-14c-24.3-1.9-49.8-3.7-76.3-5.5c-5-0.3-10-0.7-15.1-1c-37.1-2.5-76-4.8-116.6-7.1
			c-83.6-4.5-173.8-8.4-267.7-10.7c-36.5-0.9-73.6-1.6-111-2.1c-19.5-0.2-39.2-0.3-58.9-0.3c-23.7-0.1-47.5-0.1-71.4,0.1
			c-35.3,0.2-70.8,0.8-106.2,1.7c-26,0.6-52.1,1.4-78,2.3c-36.2,1.4-72.3,3.2-108.2,5.3c-5.5,0.3-11,0.7-16.5,1.1
			c-16.7,1-33.4,2.1-50,3.4c-82.4,6.2-162.8,14.7-239.3,26c-12.9,1.9-25.6,3.9-38.2,6c-287.7,47-512.4,136.7-564.1,297.3
			c-47,147.1,54.6,356.4,389.8,647.5c55.8,48.4,114,94.8,174.3,139.1c389,286,867.9,488.7,1369.7,631.8c20.8,6,41.6,11.8,62.5,17.5
			c3.2,0.9,6.4,1.8,9.6,2.7c5.7,1.5,11.4,3.1,17.1,4.6c11.3,3.1,22.6,6.1,33.8,9c19.8,5.3,39.6,10.5,59.5,15.5
			c100.2,25.6,201,48.9,301.8,70.1c25.4,5.4,50.8,10.6,76.2,15.7c11.9,2.4,23.8,4.8,35.6,7.1c8.2,1.7,16.4,3.3,24.6,4.8
			c12.5,2.4,25,4.8,37.5,7.1c420,79.3,835.9,124.9,1210,150c421.3,28.4,789.7,30.7,1051.2,26.1c30.2-73,56-184.3,77.7-315
			C28078.3,6149.5,28102.9,5896.1,28119.9,5667.5"/>
		<path id="cloud_00000065075411035035473450000002372601611389094792_" class="st3" d="M14367.6,9169.3
			c0,0,436.6,756.9,1480.6,672.8c0,0,1515.8,1261.5,3132.2,168.2c0,0,1718.1,270.9,2990.6-234.6
			c848.4-337,1128.6-690.5,1128.6-690.5L14367.6,9169.3"/>
		<path id="tree" class="st4" d="M21561.7,12509.1c0,0-330.2,565.8-1118.6,425.7c-788.5-140.1-578.7-1051.1-1015-1479.4
			c-436.4-428.2-816.9-809.8-629.5-1414.7c187.3-605-807.6-734.3-804.7-1647.9c2.9-913.5,215.5-1452,1438.5-1523.1
			c1223.1-71.1,3179.4,252.1,3444.3,620.6c264.9,368.5,220.4,1177.5-444.8,2209.8c-665.1,1032.3-57.4,1124.9-501.9,1722.7
			C21485.4,12020.5,21798.4,12262.9,21561.7,12509.1"/>
		<path id="wheelstem2" class="st5" d="M15875.9,4891.6h-232.1l50,6580.8h117.6L15875.9,4891.6"/>
		<g id="wheel2">
			<g id="wheel2_00000004504884269870384940000009214124746097865145_">
				<path id="wheel2_00000014617147035884811370000007254150392302564757_" class="st6" d="M15838.2,11162.1l1920.4-963.3
					l746.4-374.4l-26.1-63l-791.7,276.6l-1296.8,453l-632.8,522.7L15838.2,11162.1"/>
				<path id="wheel2_00000016057676437299523060000008875924546990451901_" class="st7" d="M17758.6,10198.8l746.4-374.4l-26.1-63
					l-791.7,276.6L17758.6,10198.8"/>
				<path id="wheel2_00000134242245738984362230000005806528655226007950_" class="st6" d="M15625.7,11159.5l145.4-159.5
					l-2006.4-1951.3l-725.5-705.5l-65.1,58l639.4,806.3l1116.1,1407.7L15625.7,11159.5"/>
				<path id="wheel2_00000106124285311290077910000014211935660493342619_" class="st7" d="M13666.6,9294.8l163.6-171.4
					l-785.5-761.1l-70.5,62.6L13666.6,9294.8"/>
				<path id="wheel2_00000099620871742503290800000015743405993682592444_" class="st6" d="M14726.9,13895l480.4-927.9l515.1-995.2
					l92-793.9l-161.1-49.4l-619.4,1716.2l-369.6,1023.7L14726.9,13895"/>
				<path id="wheel2_00000126313731555654278600000001617218234626328752_" class="st7" d="M14726.9,13895l497.5-961.1l-190.6-89.1
					l-369.6,1023.7L14726.9,13895"/>
			</g>
		</g>
		<path id="wheeldot2" class="st8" d="M15752.5,11761.7c-118.8,7.1-220.9-83.5-228-202.2c-7.1-118.8,83.5-220.9,202.2-228
			s220.9,83.5,228,202.2S15871.4,11754.6,15752.5,11761.7"/>
		<path id="path_00000012459534457640438700000002958513636111393456_" class="st9" d="M7982.6,3269.6h5741.5l2393.6,1.5h4328.5
			c0,0,2.5,4.4,7.4,13.1c3.4,6.2,8.1,14.5,14.2,25.1l2.4,3.1c0,0,0,0,0,1.6c0,0,2.3,1.7,2.3,3.2c9.6,12.7,16.7,27.1,26.3,44.4
			c4.8,8,9.5,17.6,16.8,27.1c0,1.5,0,1.5,0,3.2c2.3,1.6,2.3,1.6,2.3,1.6c32.8,56.7,73.5,130.5,120.4,219.7
			c4.3,8.1,8.5,16.2,12.9,24.5c23.4,67.4,49.1,142.8,76.5,225.9c65.1,201.8,139.8,448,212.8,725.9c28.6,109.7,57.2,224,84.3,343.2
			c15.9,68.8,31.9,140.4,47.2,212.7c4.4,21.3,8.8,42.5,13.1,63.7c28.1,135.4,54.5,275,78.3,417.6c46.8,279.1,83.8,570,104.6,864.9
			c-1859.2-95.8-5443.1-348.1-8138.8-950.1C9325.4,4692,8385.4,4554.9,6774,4402.4C5872.2,4317.1,6901.2,3751.3,7982.6,3269.6"/>
		<path id="path_00000078726923592563401160000000682544952028449420_" class="st9" d="M10400.4,4189.6
			c0,0,6160.6,1876.4,7711.8,2012.3c1551.3,135.9,65.2-181.7,65.2-181.7s-4216.1-1096.8-5196.1-1564.6
			C10908.9,3466.4,10400.4,4189.6,10400.4,4189.6"/>
		<path id="path_00000062175413828873725620000002524050500853471388_" class="st9" d="M12261.2,3323.3
			c0,0,5134.4,2358.2,6523.8,2741.4c1389.3,383.2,89.5-152.4,89.5-152.4s-4054-2114-4903.2-2647.7
			C13848.4,3187.3,12261.2,3323.3,12261.2,3323.3"/>
		<path id="path" class="st10" d="M11274.5,5879.6l28.8,4775.8l-1110.2-1072.2l-451.9-435.3l-37.9,33.4l394.3,492.9l644.6,806.8
			l500.4,301.8c-1.5,1.5-1.5,1.5-1.5,3c0,24.3,9.1,45.5,21.2,63.7l-636.9,1378.6l-250.3,539.9l44,25.8l323.1-512.6l564.1-894.8
			l107.7-506.5h2188.4l3.1-51.6l-825-106.2l-825.1-107.6l-508,116.7c-12.2-22.7-33.4-39.4-57.6-48.5l36.3-4696.9
			C11373.1,5960,11321.5,5925.1,11274.5,5879.6"/>
		<path id="wheelstem1" class="st5" d="M22940.2,5162.6h-295.6l63.6,9219.3h149.9L22940.2,5162.6"/>
		<g id="wheel1">
			<path id="wheel1_00000039109019353278389320000003715828708693668773_" class="st6" d="M22733.3,14675.6l1268.6,2529l493.1,983
				l83-34.4l-364.2-1042.6l-596.6-1707.8l-688.4-833.3L22733.3,14675.6"/>
			<path id="wheel1_00000087399796286494310750000003892193928370482314_" class="st7" d="M24001.9,17204.6l493.1,983l83-34.4
				l-364.2-1042.6L24001.9,17204.6"/>
			<path id="wheel1_00000150798186968731404850000012792356852874124987_" class="st6" d="M22736.8,14395.7l210.1,191.5
				l2569.6-2642.2l929.1-955.4l-76.4-85.7l-1061.9,842.1l-1853.8,1469.8L22736.8,14395.7"/>
			<path id="wheel1_00000062168759343279192520000002075650332667207333_" class="st7" d="M25192.4,11815.7l225.7,215.5
				l1002.3-1034.5l-82.4-92.8L25192.4,11815.7"/>
			<path id="wheel1_00000036219412741331574750000006288748258422610353_" class="st6" d="M19134.3,13212.1l1221.9,632.6
				l1310.5,678.4l1045.5,121.1l65.1-212.2l-2260-815.7l-1348.1-486.7L19134.3,13212.1"/>
			<path id="wheel1_00000066474922733066809960000015530089317157130680_" class="st7" d="M19134.3,13212.1l1265.6,655.2l117.4-251
				l-1348.1-486.7L19134.3,13212.1"/>
		</g>
		<path id="wheeldot1" class="st8" d="M22889.5,14250.1c163.8,57.5,249.8,236.8,192.3,400.6c-57.5,163.6-236.8,249.8-400.6,192.3
			c-163.6-57.6-249.6-236.9-192.1-400.6C22546.5,14278.7,22725.8,14192.6,22889.5,14250.1"/>
		<path id="grass" class="st2" d="M18433.5,4656.7c0,0-1239.9,368.5-1965.8-83.1c-726-451.7-296.5-971.5-1155.4-926.3
			c-858.8,45.2-1288.2,88.6-1333.4-419h3796.9L18433.5,4656.7"/>
		<path id="largehouse_00000062175219372748956740000013971043745364719243_" class="st11" d="M23677.3,9080.4V3237.1h-4167.4
			v5843.2H23677.3"/>
		<path id="largehouse_00000119076192630804409610000017024848464570502537_" class="st12" d="M26915.2,8924.9V3237.6h-3238v5843.5
			h3096.9C26822.7,9029.6,26869.7,8978,26915.2,8924.9"/>
		<path id="largehouse_00000145767939046135248850000009870289630584658322_" class="st13" d="M24484,10989.1l-329-678l-145.6-298.7
			l-4.6-12.2l-6.1-10.6l-4.5-9.1l-7.6-15.2l-3-7.5l-144.1-295.8l-7.6-15.2l-18.2-39.4l-256.3-526.2l-59.1-122.9l-83.4-169.8l-44-91
			H19223l286.6,371.5l9.1,12.2l1865.4,2414.4l1.5,1.5h163.9l2529.6,9.1C24168.6,11334.8,24309.7,11161.9,24484,10989.1"/>
		<path id="largehouse_00000106864456184922580970000012611562078226824609_" class="st11" d="M23677.3,8725v-485.9L19509.9,8063
			v633.8h-123.4l2162.8,2800.9L23677.3,8725"/>
		<path id="window1" class="st14" d="M21586.5,10102.4h-87.1c-296,0-535.9-240-535.9-535.9V8204.7H22105v1379.2
			C22105,9870.2,21872.9,10102.4,21586.5,10102.4"/>
		<path id="largehouse" class="st7" d="M27295.1,8541.3h-3694.5l-186.5,247.2l-219.9,292.7l-1730.4,2306.7l-80.4,107.7l-9.1,12.1
			h3694.4l9.1-12.1l80.4-107.7l1730.5-2306.7l219.8-292.7L27295.1,8541.3"/>
		<path id="smallhouse" class="st13" d="M21097.1,7911.6L20125,5910.2h-2953.4l1539.8,1994.1L21097.1,7911.6"/>
		<path id="smallhouse_00000101784316020358611350000006246255813057613474_" class="st11" d="M21185.6,7911.6l-972.1-2001.4
			h-2953.4l1539.7,1994.1L21185.6,7911.6"/>
		<path id="smallhouse_00000183968030979359688220000007644491674917741738_" class="st11" d="M20207,5910.2V3242.6l-2946.9-5.7
			v2673.2H20207"/>
		<path id="window1_00000017517079521010562720000014951308096862040713_" class="st14" d="M18745.8,6436.7h-70.4
			c-239.3,0-433.3-194-433.3-433.3v-1101h922.9v1115C19165,6249,18977.4,6436.7,18745.8,6436.7"/>
		<path id="smallhouse_00000068663067939203791940000011284226022268736405_" class="st12" d="M22702.4,5910.2V3242.6H20207v2667.5
			H22702.4"/>
		<path id="smallhouse_00000132076273129242544800000008334631420574608529_" class="st7" d="M22976.7,5791.9h-2680.8
			l-1584.6,2112.5l798.6-0.2l1836.1-0.4L22976.7,5791.9"/>
		<path id="smallhouse_00000070097282987461500890000007933271852181414568_" class="st14" d="M18572,6793.2
			c0,77,62.4,139.3,139.4,139.3c76.9,0,139.3-62.3,139.3-139.3c0-76.9-62.4-139.3-139.3-139.3
			C18634.4,6653.9,18572,6716.3,18572,6793.2"/>
		<path id="smallhouse_00000000209090397855109970000012141168420884662168_" class="st15" d="M22976.7,5791.9h-508.8l-2958,2112.3
			l1836.1-0.4L22976.7,5791.9"/>
		<g id="solarpanel4">
			<path id="solarpanel4_00000099623110241987054790000002606512540126395068_" class="st16" d="M25135.4,9248.1l11.7,63.2
				l-114.7,63.2l-11.7-63.2L25135.4,9248.1"/>
			<path id="solarpanel4_00000140721537673453287610000006535431251613001870_" class="st16" d="M24610.6,9248.1l11.7,63.2
				l-114.7,63.2l-11.7-63.2L24610.6,9248.1"/>
			<path id="solarpanel4_00000088836948884923087800000004823913453118771385_" class="st8" d="M24309.5,8998.5h2028.2l-1070,1312.1
				h-2028.2L24309.5,8998.5"/>
			<path id="solarpanel4_00000168076050039718057880000006573671707564304795_" class="st16" d="M23515.8,9965H25544l-12.6,15.4
				h-2028.2L23515.8,9965"/>
			<path id="solarpanel4_00000159441737224940250250000003466491790036480680_" class="st16" d="M24791,10310.7l1069.9-1312.2h15.5
				l-1070,1312.2H24791"/>
			<path id="solarpanel4_00000170247083051789372510000017880419320962269855_" class="st16" d="M24253.6,10310.7l1070-1312.2h15.4
				l-1070,1312.2H24253.6"/>
			<path id="solarpanel4_00000072979989726239587350000004708160173784526466_" class="st16" d="M23736.5,10310.7l1070-1312.2h15.4
				L23752,10310.7H23736.5"/>
			<path id="solarpanel4_00000036940515715397349920000003959148089524232627_" class="st16" d="M23780.8,9646.8H25809l-12.6,15.5
				h-2028.2L23780.8,9646.8"/>
			<path id="solarpanel4_00000044882676146019803810000011593495225186676926_" class="st16" d="M24060.6,9303.6h2028.3l-12.6,15.4
				h-2028.2L24060.6,9303.6"/>
			<path id="solarpanel4_00000072240863349969856380000000175759375734145706_" class="st16" d="M25128.6,9908.5l11.7,63.1
				l-114.8,63.3l-11.6-63.3L25128.6,9908.5"/>
			<path id="solarpanel4_00000071532927319613631980000007878382373879897511_" class="st16" d="M24597,9908.5l11.7,63.1
				l-114.8,63.3l-11.6-63.3L24597,9908.5"/>
			<path id="solarpanel4_00000116930544398637148870000017865509471241165759_" class="st16" d="M24072.2,9908.5l11.7,63.1
				l-114.8,63.3l-11.6-63.3L24072.2,9908.5"/>
			<path id="solarpanel4_00000158726478162419148720000002941566487479573635_" class="st16" d="M25387.2,9591.3l11.6,63.2
				l-114.7,63.2l-11.7-63.2L25387.2,9591.3"/>
			<path id="solarpanel4_00000003785944194607439050000001057297596169320095_" class="st16" d="M24855.6,9591.3l11.6,63.2
				l-114.7,63.2l-11.7-63.2L24855.6,9591.3"/>
			<path id="solarpanel4_00000176729681879393433160000002519671221793761707_" class="st16" d="M24330.8,9591.3l11.6,63.2
				l-114.7,63.2l-11.7-63.2L24330.8,9591.3"/>
			<path id="solarpanel4_00000074405551332616119940000013410530933484481689_" class="st16" d="M25667,9248.1l11.7,63.2
				l-114.7,63.2l-11.7-63.2L25667,9248.1"/>
		</g>
		<g id="solarpanel3">
			<path id="solarpanel3_00000045599774493019893100000000993254108019917227_" class="st16" d="M21457.6,6735.9l10.6,57.3
				l-104,57.3l-10.6-57.3L21457.6,6735.9"/>
			<path id="solarpanel3_00000026853863040038129700000005293484546831378828_" class="st16" d="M20754,6424.9l10.5,57.3
				l-103.9,57.3l-10.6-57.3L20754,6424.9"/>
			<path id="solarpanel3_00000108284951408794096960000016121824589072266913_" class="st16" d="M21223.3,7023.3l10.6,57.2
				l-104,57.3l-10.6-57.3L21223.3,7023.3"/>
			<path id="solarpanel3_00000095308087241357015100000000919069386572880301_" class="st16" d="M20741.6,7023.3l10.6,57.2
				l-104,57.3l-10.5-57.3L20741.6,7023.3"/>
			<path id="solarpanel3_00000016063773207441809680000012277093030930426044_" class="st16" d="M20266.1,7023.3l10.6,57.2
				l-104,57.3l-10.6-57.3L20266.1,7023.3"/>
			<path id="solarpanel3_00000173123572784742578770000012339715273208596116_" class="st16" d="M20975.9,6735.9l10.6,57.3
				l-104,57.3l-10.5-57.3L20975.9,6735.9"/>
			<path id="solarpanel3_00000149340368839904483260000008336128950420320147_" class="st16" d="M20500.4,6735.9l10.6,57.3
				l-104,57.3l-10.6-57.3L20500.4,6735.9"/>
			<path id="solarpanel3_00000139269640318394437420000011670487500562558615_" class="st16" d="M21711.2,6424.9l10.6,57.3
				l-104,57.3l-10.6-57.3L21711.2,6424.9"/>
			<path id="solarpanel3_00000132809387077397601580000007830567648652971944_" class="st16" d="M21229.5,6424.9l10.6,57.3
				l-104,57.3l-10.6-57.3L21229.5,6424.9"/>
			<path id="solarpanel3_00000132086947856627020750000009867918225871834759_" class="st8" d="M20481.1,6198.7h1837.8l-969.5,1189
				h-1837.8L20481.1,6198.7"/>
			<path id="solarpanel3_00000091696523604310428000000015631854251147928233_" class="st16" d="M19761.9,7074.5h1837.8l-11.4,14
				h-1837.8L19761.9,7074.5"/>
			<path id="solarpanel3_00000156562752509518370010000009303386274006571198_" class="st16" d="M20917.4,7387.7l969.5-1189h14
				l-969.5,1189H20917.4"/>
			<path id="solarpanel3_00000018197790842251095680000006573880535965169822_" class="st16" d="M20430.5,7387.7l969.5-1189h13.9
				l-969.4,1189H20430.5"/>
			<path id="solarpanel3_00000122708348346999787880000012329500843049801896_" class="st16" d="M19961.9,7387.7l969.5-1189h14
				l-969.5,1189H19961.9"/>
			<path id="solarpanel3_00000068669453711701261340000003219451267373818502_" class="st16" d="M20002,6786.2h1837.8l-11.4,14
				h-1837.8L20002,6786.2"/>
			<path id="solarpanel3_00000024718211027794959770000006145594876069826231_" class="st16" d="M20255.6,6475.2h1837.8l-11.4,14
				h-1837.8L20255.6,6475.2"/>
		</g>
		<path id="path158" class="st2" d="M9799.8,3269.6c-0.6-1.7-1.2-3.3-1.8-5H2842.5l-0.1,0.3c0,1.5-1.6,3.1-1.6,3.1
			c-3.7,8.6-804.9,1116.6-1043.1,2636.7c174.1,66.9,788.8,274.7,1653.6,252.2c34.8-0.9,70-2.2,105.6-3.9
			c319.1-14.9,669.8-61.8,1043.1-158.1c13.1-3.4,26.3-6.8,39.5-10.3c3.7-1,7.4-2,11.1-3c26.4-7.1,52.8-14.4,79.4-22
			c29.8-8.5,59.6-17.3,89.7-26.4c10.7-3.3,21.5-6.6,32.3-9.9c39.8-12.4,79.8-25.4,120.1-38.9c469.8-158.1,761.3-328.5,964.2-493.2
			c4.2-3.4,8.4-6.8,12.6-10.2c97.4-80.5,174.1-159.6,240.4-235.1c18.1-20.6,35.5-40.9,52.3-60.9c20.8-24.9,40.8-49.3,60.4-73.2
			c65.7-80.2,126.4-154.2,197.6-218.8c196.4-178.7,472.5-286.7,1153.3-259.6c122.1,4.9,238.8,6,350.3,3.6
			C9467,4506.6,10023.7,3879.1,9799.8,3269.6"/>
		<path id="path160" class="st2" d="M28120.9,5667.2l-1,0.2c-266.9,53.3-686,117.5-1204.8,132.9c-321.4,9.6-681.2,0.5-1066.7-41.5
			c-13.6-1.5-27.3-3-41-4.5c-40.2-4.7-80.7-9.6-121.5-15c-89-11.6-179.3-25.1-270.6-40.5h-0.3c-27.2-4.6-54.2-9.3-81.6-14.3
			c-29.3-5.2-58.7-10.7-88.2-16.4c-63.2-12.2-127-25.4-191.2-39.6c-28.2-6.2-56.5-12.7-84.9-19.4c-28.4-6.5-56.8-13.4-85.4-20.4
			c-34.6-8.6-69.3-17.4-104.1-26.5h-0.1c-10.8-2.9-21.7-5.8-32.5-8.7h-0.1c-31.9-8.6-63.9-17.4-96-26.5
			c-129.7-36.7-260.8-77.8-392.7-123.7c-216.6-74.8-409-148.5-581-220.3c-218.3-90.9-403.8-178.8-564.1-261.9
			c-158.3-81.8-292.7-159.5-410.7-232c-639.2-392.8-796.6-635.2-1668.5-567.3c-77.7,5.9-152.1,8.3-223.4,7.3
			c-233.6-3-433.4-40.7-603.5-98.8c-341-116.4-562.5-315.1-697.2-480.9c-111-136.6-163.2-250.8-174.9-278.2
			c-1.8-4.1-2.6-6.3-2.6-6.3h177.5h697.2h2495.4h974.8h248.9h174.7h2146.5h174.7h493.1h180.6c144.1,154.7,721.9,793.2,943.4,1792.6
			c41.9,188.9,70.5,389.8,81.4,602.4L28120.9,5667.2"/>
		<g id="clouds">
			<path id="cloud_00000064329379923041485260000010255793162810388414_" class="st3" d="M11591.7,12516.2
				c0,0,138.8,298.1,470.7,265c0,0,481.9,496.9,995.7,66.3c0,0,546.2,106.7,950.7-92.4c269.7-132.8,358.8-272,358.8-272
				L11591.7,12516.2"/>
			<path id="cloud_00000011750967713156803200000006971000876267140014_" class="st3" d="M5337.4,9814.4
				c0,0,167.6,313.5,568.4,278.7c0,0,581.9,522.5,1202.4,69.7c0,0,659.6,112.1,1148.1-97.2c325.7-139.6,433.2-286,433.2-286
				L5337.4,9814.4"/>
			<path id="cloud" class="st3" d="M6695,13453.9c0,0,287.1,497.7,973.6,442.4c0,0,996.7,829.5,2059.5,110.6
				c0,0,1129.7,178.1,1966.4-154.3c557.9-221.6,742.1-454,742.1-454L6695,13453.9"/>
			<path id="cloud_00000109732789938405727220000007367619598530147227_" class="st3" d="M15499.8,15119.5
				c0,0,323.4,668.8,1096.7,594.5c0,0,1122.7,1114.6,2319.9,148.6c0,0,1272.6,239.3,2215-207.3c628.4-297.7,836-610.1,836-610.1
				L15499.8,15119.5"/>
		</g>
		<g id="solarpanel1">
			<path id="solarpanel1_00000161595660023005099670000015957264386477194126_" class="st17" d="M5749.4,3313.2l396.1,4.9
				L7070.6,7173l-396.1-5L5749.4,3313.2"/>
			<path id="solarpanel1_00000163760978077140973970000013730566051515871878_" class="st17" d="M5095.1,3227.4h1776.3
				c0,103.9-84.2,188.2-188.2,188.2h-1400C5179.3,3415.6,5095.1,3331.3,5095.1,3227.4"/>
			<path id="solarpanel1_00000157266527971089685560000006488180589848232611_" class="st17" d="M9198.4,5012.2l-170.6,855.3
				l-0.4,1.8L8459.6,8716l-5518.6-0.8l738.8-3703.7l1048.2,0.1h9.9l1173.1,0.2h3.6l1168,0.1l8,0.1l1165.4,0.1h10.6L9198.4,5012.2"/>
			<path id="solarpanel1_00000101814668420683022120000014323788512937464208_" class="st18" d="M9292.9,5085.5l-5518.6-0.8
				l-738.8,3630.5l5518.6,0.8L9292.9,5085.5"/>
			<path id="solarpanel1_00000116195802902449768820000015384777388141144987_" class="st19" d="M4833.1,5084.8h-10.6l-736.8,3620.8
				h10.6L4833.1,5084.8"/>
			<path id="solarpanel1_00000103251047714629811390000013091031290527517080_" class="st19" d="M6009.1,5085h-10.6l-736.8,3620.7
				h10.6L6009.1,5085"/>
			<path id="solarpanel1_00000000931187512821334000000013550517779987862932_" class="st19" d="M7185.1,5085.2h-10.6l-736.8,3620.7
				h10.6L7185.1,5085.2"/>
			<path id="solarpanel1_00000097465122111123251680000016310136527360096927_" class="st19" d="M8361.1,5085.2h-10.6l-736.8,3620.8
				h10.6L8361.1,5085.2"/>
			<path id="solarpanel1_00000127744703225366649340000007591456267165530803_" class="st19" d="M8729.5,7854.4l-5518.6-0.8l-2,9.9
				l5518.6,0.8L8729.5,7854.4"/>
			<path id="solarpanel1_00000018933932783330166430000001206730966239083408_" class="st19" d="M8925.9,6889.1l-5518.6-0.7l-2,9.9
				l5518.6,0.8L8925.9,6889.1"/>
			<path id="solarpanel1_00000114065243341688188130000000290041190555100294_" class="st19" d="M9122.3,5923.9l-5518.6-0.7l-2,9.9
				l5518.6,0.8L9122.3,5923.9"/>
			<path id="solarpanel1_00000129926442705728313950000015420840141369661347_" class="st19" d="M4285.1,7752l-135.3,106.7
				l91.9,106.7l135.3-106.7L4285.1,7752"/>
			<path id="solarpanel1_00000183941137653007460970000006705353245877145738_" class="st19" d="M4482.5,6781.8l-135.3,106.7
				l91.9,106.7l135.3-106.7L4482.5,6781.8"/>
			<path id="solarpanel1_00000078034252334624488750000007407451855446676367_" class="st19" d="M5466.4,7752.1l-135.3,106.7
				l91.9,106.8l135.3-106.7L5466.4,7752.1"/>
			<path id="solarpanel1_00000091726744603325481710000007989589506920989631_" class="st19" d="M5663.8,6782l-135.3,106.7
				l91.9,106.7l135.3-106.7L5663.8,6782"/>
			<path id="solarpanel1_00000111875090728672759050000016823973435454011789_" class="st19" d="M6642.4,7752.3L6507,7859
				l91.9,106.7l135.3-106.7L6642.4,7752.3"/>
			<path id="solarpanel1_00000158738128078424399960000008324946457494412936_" class="st19" d="M7807.8,7752.5l-135.3,106.7
				l91.9,106.7l135.3-106.7L7807.8,7752.5"/>
			<path id="solarpanel1_00000034091219847595726930000010460537491745493889_" class="st19" d="M4677.9,5821.5l-135.3,106.7
				l91.9,106.8l135.3-106.7L4677.9,5821.5"/>
			<path id="solarpanel1_00000041261324947892840900000000688027835172854952_" class="st19" d="M5859.2,5821.7l-135.3,106.7
				l91.9,106.7l135.3-106.7L5859.2,5821.7"/>
			<path id="solarpanel1_00000134953639153615039590000016811793260981405070_" class="st19" d="M7035.2,5821.9l-135.3,106.7
				l91.9,106.7l135.3-106.7L7035.2,5821.9"/>
			<path id="solarpanel1_00000155865421031464481750000011813921017022165888_" class="st19" d="M8200.6,5822l-135.3,106.7
				l91.9,106.8l135.3-106.7L8200.6,5822"/>
			<path id="solarpanel1_00000121257717360690821540000004240954435733334173_" class="st19" d="M8005.2,6782.3L7869.9,6889
				l91.9,106.7l135.3-106.7L8005.2,6782.3"/>
			<path id="solarpanel1_00000127732126804305672150000001451380921640034983_" class="st19" d="M6839.8,6782.1l-135.3,106.7
				l91.9,106.8l135.3-106.7L6839.8,6782.1"/>
		</g>
		<g id="solarpanel2">
			<path id="solarpanel2_00000100383344106586773980000000750464698103462585_" class="st17" d="M11494,3286.3l272,3.4l635.1,2646.6
				l-272-3.4L11494,3286.3"/>
			<path id="solarpanel2_00000008869870714741006620000011111689547128638339_" class="st17" d="M11044.7,3227.4h1219.6
				c0,71.3-57.9,129.2-129.2,129.2h-961.2C11102.6,3356.6,11044.7,3298.8,11044.7,3227.4"/>
			<path id="solarpanel2_00000150066832621424698850000007747919075915379083_" class="st17" d="M13862,4452.9l-117.2,587.2
				l-0.2,1.3l-389.8,1954.3l-3789-0.5l507.2-2542.9l719.7,0.1h6.8l805.4,0.1h2.5l801.9,0.1l5.5,0.1l800.1,0.1h7.3l0,0L13862,4452.9"
				/>
			<path id="solarpanel2_00000085965741153216135710000001392674815558133402_" class="st18" d="M13926.8,4503.1l-3788.9-0.5
				l-507.2,2492.6l3788.9,0.5L13926.8,4503.1"/>
			<path id="solarpanel2_00000068650851927510523900000015827960397508899516_" class="st19" d="M10864.8,4502.6h-7.2l-505.8,2485.9
				h7.2L10864.8,4502.6"/>
			<path id="solarpanel2_00000169560471832862705220000002437134824808763296_" class="st19" d="M11672.3,4502.8h-7.3l-505.8,2485.9
				h7.2L11672.3,4502.8"/>
			<path id="solarpanel2_00000028302771722029861770000001127229534805105839_" class="st19" d="M12479.7,4502.9h-7.3l-505.8,2485.9
				h7.2L12479.7,4502.9"/>
			<path id="solarpanel2_00000172421906348738827780000012404429348741193356_" class="st19" d="M13287.1,4503h-7.3L12774,6988.9
				h7.2L13287.1,4503"/>
			<path id="solarpanel2_00000168100633869403782880000011962174972330851490_" class="st19" d="M13540,6404.2l-3788.9-0.6l-1.4,6.9
				l3788.9,0.5L13540,6404.2"/>
			<path id="solarpanel2_00000113349670270040573700000011127348903906179754_" class="st19" d="M13674.9,5741.5l-3789-0.6l-1.4,6.9
				l3789,0.5L13674.9,5741.5"/>
			<path id="solarpanel2_00000158012060832376222280000009053723200511394185_" class="st19" d="M13809.7,5078.8l-3788.9-0.5
				l-1.4,6.8l3788.9,0.5L13809.7,5078.8"/>
			<path id="solarpanel2_00000075137593008417501370000005619212817992020363_" class="st19" d="M10488.6,6333.9l-92.9,73.2
				l63.1,73.3l92.9-73.2L10488.6,6333.9"/>
			<path id="solarpanel2_00000153703588108868930640000001358665676857579191_" class="st19" d="M10624.1,5667.8l-92.9,73.2
				l63.1,73.3l92.9-73.2L10624.1,5667.8"/>
			<path id="solarpanel2_00000037689750596851480800000000935630637066086022_" class="st19" d="M11299.6,6334l-92.9,73.3l63.1,73.2
				l92.9-73.2L11299.6,6334"/>
			<path id="solarpanel2_00000152233240898498012580000010901745986175025318_" class="st19" d="M11435.2,5667.9l-92.9,73.3
				l63.1,73.2l92.9-73.2L11435.2,5667.9"/>
			<path id="solarpanel2_00000134970931157813375900000009239549549884000445_" class="st19" d="M12107.1,6334.1l-93,73.3l63.1,73.3
				l92.9-73.3L12107.1,6334.1"/>
			<path id="solarpanel2_00000097470703096172194930000009503804234935307173_" class="st19" d="M12907.2,6334.2l-92.9,73.3
				l63.1,73.3l92.9-73.3L12907.2,6334.2"/>
			<path id="solarpanel2_00000107550167113100088400000007798715906924425358_" class="st19" d="M10758.3,5008.5l-92.9,73.3
				l63.1,73.2l92.9-73.2L10758.3,5008.5"/>
			<path id="solarpanel2_00000136378643210391170440000013751349798079121833_" class="st19" d="M11569.3,5008.6l-92.9,73.3
				l63.1,73.3l92.9-73.3L11569.3,5008.6"/>
			<path id="solarpanel2_00000082360917713457621090000013184510803377478326_" class="st19" d="M12376.8,5008.7l-93,73.3l63.1,73.3
				l92.9-73.3L12376.8,5008.7"/>
			<path id="solarpanel2_00000138564264409026960410000001556820309929835925_" class="st19" d="M13176.9,5008.8l-92.9,73.3
				l63.1,73.3l92.9-73.3L13176.9,5008.8"/>
			<path id="solarpanel2_00000078728791516679029600000005162615318712556174_" class="st19" d="M13042.8,5668.1l-92.9,73.3l63,73.3
				l92.9-73.3L13042.8,5668.1"/>
			<path id="solarpanel2_00000109729525986558027950000014841283306867340429_" class="st19" d="M12242.6,5668l-92.9,73.3l63.1,73.2
				l92.9-73.2L12242.6,5668"/>
		</g>
		<g id="biker1">
			<path id="path362" class="st20" d="M17793.7,5898.2c0,0,226.4-260.8,18.5-553.9c-207.8-293.2-546.3-529.7-564.9-634.3
				c-36.1-202.3-251.6-620.1-354.2-826.8l-87.9,33.7c0,0,164.9,979.7,223.6,1096.9c58.6,117.3,362.4,666.3,362.4,666.3
				L17793.7,5898.2"/>
			<path id="path258" class="st21" d="M17266.2,4175.8l90.1,17.6c0,0-215.4,852.2-185.9,922.5c23.9,58.4,272.3,100.6,394,202.7
				c26.1,21.8,45.8,45.7,57,73.1c64.8,158.4-40.8,275.9-40.8,275.9s-220.9-50.7-421.5-136.5c-142.8-61.2-275.1-140.8-311.7-232.9
				C16759.5,5075.1,17266.2,4175.8,17266.2,4175.8"/>
			<path id="path260" class="st22" d="M17020.9,4044.3c1.4,8.9,7.3,16.8,16,21.6c21.5,11.8,65.4,28.8,98.2,72.7
				c18.5,24.6,94.9,97.6,94.9,97.6l0.5,0.2c1.9,0.5,11.9,0.3,60.4-19.5c25-10.2,51,36.8,51,36.8s8-3.2,15.4-11.1
				c5.9-6.1,11.4-15.3,12.2-28.2c1.3-18,20-47.4,33.9-66.9c8.4-11.9,15.1-20.1,15.1-20.1s5.2-10.2-37.4-26.3l-50.9-13.2
				c-17.7-2-31.4-0.9-49.5-3.4c-27.3-3.8-37.1-16.6-39-19.5l-0.3-0.5l-216.5-56C17017.7,4014.1,17018.8,4031.3,17020.9,4044.3"/>
			<path id="path262" class="st23" d="M16596.5,4010.3c22.2,0,40.3,18,40.3,40.2c0,499.1-406.1,905.2-905.2,905.2
				c-115.2,0-227.5-21.4-333.5-63.5c-20.7-8.1-30.7-31.6-22.5-52.2s31.4-30.7,52.2-22.6c96.5,38.4,198.8,57.9,303.8,57.9
				c454.8,0,824.7-370,824.7-824.8C16556.3,4028.3,16574.3,4010.3,16596.5,4010.3"/>
			<path id="path264" class="st22" d="M15868.2,4050.6c0,74-60,134-134.1,134c-74,0-134-60-134-134c0-74.1,60-134.1,134-134.1
				C15808.2,3916.6,15868.2,3976.6,15868.2,4050.6"/>
			<g id="bike1wheel1">
				<path id="bike1wheel1_00000110450514982822155530000012222319871440688830_" class="st22" d="M15148.7,3647.8l622.4,431.6
					l-10.3,15l-622.5-431.6L15148.7,3647.8"/>
				<path id="bike1wheel1_00000178902589348244875860000006179926214622030502_" class="st22" d="M15748.8,4056.6l227.1,633
					l-17.1,6.2l-227.2-633.1L15748.8,4056.6"/>
				<path id="bike1wheel1_00000070840258014839415780000004703931746469812913_" class="st22" d="M16375.7,3765.1l7.2,16.7
					l-642.8,276.1l-422.6,603.7l-14.9-10.5l425.6-607.9l2.4-1L16375.7,3765.1"/>
				<path id="bike1wheel1_00000132087037345805389250000013063832525427603391_" class="st22" d="M15989,3352.6l17.3,5.8
					c-4.6,13.6-253.1,667.7-263.7,695.5l-6.4,17l-400.5-633.3l15.4-9.7l381,602.5C15823.1,3790.8,15985.6,3362.9,15989,3352.6"/>
				<path id="bike1wheel1_00000115498428790543014860000006271631356754971290_" class="st22" d="M15735.7,4087.1l713.3,122.7
					l-3.1,17.9l-713.3-122.6L15735.7,4087.1"/>
				<path id="bike1wheel1_00000088125924946162894700000015028220790648542136_" class="st22" d="M15680.1,4097.8l17.2,5.7l-209,627
					l-17.2-5.7L15680.1,4097.8"/>
				<path id="bike1wheel1_00000167371421957755331430000006461151612323188151_" class="st22" d="M15735.6,4041.1l2.6,1.4
					l654.3,331.6l-8.2,16.2l-651.6-330.3l-701.3,117.7l-3-18L15735.6,4041.1"/>
				<path id="bike1wheel1_00000078750253845081533930000008737257621705273985_" class="st22" d="M15470.2,3375.3
					c3.8,11.4,171.7,424.5,265.7,655.5l363.1-571.2l15.4,9.7l-382,601l-6.7-16.3c-10.9-26.9-268.2-659.2-272.8-673L15470.2,3375.3"
					/>
				<path id="bike1wheel1_00000129896021544894607420000013949570815989608855_" class="st22" d="M16437,3937.1l2.7,18l-704.2,104.5
					l-2.7-18L16437,3937.1"/>
				<path id="bike1wheel1_00000177480456827212527020000014772678236972671158_" class="st22" d="M15777.3,4144.6l390.8,449.8
					l-13.7,11.9l-390.8-449.8L15777.3,4144.6"/>
				<path id="bike1wheel1_00000013916113951632223240000014745023686761429687_" class="st22" d="M15756.9,3341.1l18.1,1.5
					l-54.5,658.8l-18.1-1.5L15756.9,3341.1"/>
				<path id="bike1wheel1_00000016765694355962183540000016988624655948042116_" class="st22" d="M16250.2,3562.6l12.9,12.8
					l-519.9,524.3v682.4h-18.1v-689.8L16250.2,3562.6"/>
				<path id="bike1wheel1_00000183240785653540751860000013818562458839105412_" class="st24" d="M16359.6,3791.8
					c-2.2-5.6-4.6-11.2-7.2-16.7c-28.7-64.3-67.2-123.3-113.6-175.2c-4-4.6-8.1-9.1-12.3-13.5c-36.4-38.5-77.2-72.8-121.7-102
					c-5-3.4-10.1-6.6-15.3-9.8c-33.7-20.9-69.4-38.9-106.7-53.7c-5.6-2.2-11.3-4.4-17-6.5c-60.9-22.2-125.9-36-193.5-39.7
					c-6.1-0.4-12.1-0.6-18.2-0.8c-6.7-0.2-13.3-0.3-20-0.3c-84.6,0-168.2,15.8-246.2,46.3c-5.7,2.1-11.3,4.4-16.9,6.7
					c-27.2,11.6-53.7,24.8-79.3,39.9c-3.9,2.3-7.8,4.7-11.7,7.1c-5.2,3.1-10.3,6.3-15.3,9.7c-69.7,45.4-130.5,103.4-179.2,170.6
					c-3.1,4.3-6.2,8.7-9.2,13.1c-3.5,5-6.9,10.1-10.1,15.2c-6.2,9.3-12,18.7-17.6,28.3c-33.1,56.9-57.6,118.3-72.8,182.1
					c-12.4,51.5-18.7,104.6-18.7,158c0,35.1,2.7,69.5,7.8,103.1c1,6,2,12,3,17.9c31.8,175.5,131.5,327.6,270.7,428.1
					c4.9,3.6,9.9,7.1,14.9,10.5c41.1,28.1,85.4,51.7,132.2,70.3c5.7,2.2,11.4,4.3,17.1,6.4c69.5,25.4,144.3,39.6,222.2,40.6
					c3,0.1,6.1,0.1,9.1,0.1s6.1,0,9.1-0.1c72.8-0.9,142.9-13.4,208.4-35.7h0.1c1.7-0.6,3.3-1.2,5-1.8c5.8-2,11.4-4.1,17.1-6.2
					c29.7-11.3,58.4-24.6,85.9-39.7c28.5-15.7,55.7-33.4,81.5-52.9c4.9-3.6,9.6-7.3,14.3-11.2c25.3-20.1,49.2-42.1,71.4-65.6
					c21.7-23,41.7-47.6,60-73.5c17.2-24.2,32.9-49.6,46.7-76.1c2.9-5.4,5.7-10.8,8.3-16.2c20.4-41.3,36.6-85,48.3-130.5
					c1.4-5.9,2.9-11.8,4.2-17.8c10.9-48.2,16.7-98.3,16.7-149.7c0-30.6-2-60.8-6-90.4c-0.8-6-1.7-12.1-2.7-18
					C16394,3889.8,16379.5,3839.4,16359.6,3791.8L16359.6,3791.8z M16372.2,4509.1c-14.5,20.1-30,39.6-46.3,58.2
					c-62,70.9-136.5,130.6-220,175.6c-36.4,19.7-74.5,36.5-114,50.2c-80.8,28.2-167.5,43.5-257.8,43.5c-28,0-55.7-1.5-82.9-4.4h-0.1
					c-163.1-17.2-311.5-84.5-429.4-186l-0.1-0.1c-167.3-144.3-273.5-357.7-273.5-595.5c0-72,9.9-143.4,29.1-212.1
					c17.2-61.8,42.1-121.5,74.2-177.5c0.9-1.8,2-3.5,3-5.3c68-116.8,165.5-214.8,282-283.2c91.5-53.8,193.2-88.3,298.4-101.6h0.2
					h0.2c32.6-4.2,65.8-6.3,98.9-6.3c34.1,0,67.8,2.2,100.8,6.4h0.2c386,49.8,685,380.3,685,779.6
					C16520.1,4221.6,16465.3,4380.1,16372.2,4509.1"/>
			</g>
			<path id="path292" class="st25" d="M17252.7,3929.1l462,1444.8l-77.9,24.9l-462-1444.8L17252.7,3929.1"/>
			<path id="path294" class="st25" d="M17291.5,3925.1l1090.3,94.8l-2022,1367.1l115.7-236.8l1669.3-1068.8l-860.3-74.8
				L17291.5,3925.1"/>
			<path id="path296" class="st25" d="M17144.6,3989.1l68.7,44.4l-838.9,1343.9l-97.7-101.1L17144.6,3989.1"/>
			<path id="path298" class="st22" d="M15799.3,4086.6l467.2,999.9l-62.6,25c-40.7,16.3-86.9-3.6-103-44.3l-377.4-949.7
				L15799.3,4086.6"/>
			<path id="path300" class="st22" d="M16266.5,5086.6c67.6,175.4,180.4,451,178.6,448.3l-68,45.4c-3.3-5-5.5-8.3-182.8-468.4
				L16266.5,5086.6"/>
			<path id="path302" class="st22" d="M16658.7,5439.1c26.7,37.2,18.3,89.1-18.9,115.8c-37.2,26.8-89,18.3-115.8-18.9
				c-26.7-37.2-18.3-89,18.9-115.7C16580.1,5393.5,16631.9,5401.9,16658.7,5439.1"/>
			<path id="path304" class="st22" d="M16344.6,5656.2c26.8,37.2,18.4,89-18.8,115.8c-37.2,26.7-89.1,18.3-115.8-18.9
				c-26.8-37.2-18.3-89,18.9-115.8C16266,5610.7,16317.9,5619.1,16344.6,5656.2"/>
			<path id="path306" class="st22" d="M16263.7,5626.9l316.9-201.6l43.9,86.5l-316.8,201.6L16263.7,5626.9"/>
			<path id="path308" class="st22" d="M16785.2,3732.6h177.2c20.8,0,37.8,17.1,37.8,37.9c0,20.8-17,37.8-37.8,37.8h-177.2
				c-20.8,0-37.9-17-37.9-37.8S16764.4,3732.6,16785.2,3732.6"/>
			<path id="path310" class="st22" d="M16872.1,3778.6l358.9,163.6l-13.2,28.9l-358.9-163.5L16872.1,3778.6"/>
			<path id="path312" class="st22" d="M18397.4,4050.6c0,74-60.1,134-134.1,134s-134-60-134-134c0-74.1,60-134.1,134-134.1
				S18397.4,3976.6,18397.4,4050.6"/>
			<g id="bike1wheel2">
				<g>
					<path id="bike1wheel2_00000095310295568108038300000003777986559327316138_" class="st22" d="M18779.4,3562.6l12.9,12.8
						l-519.9,524.3v682.4h-18.2v-689.8L18779.4,3562.6"/>
				</g>
				<path id="bike1wheel2_00000108996944814002366650000002475375843416885393_" class="st22" d="M18277.9,4056.6l227.2,633
					l-17.1,6.2l-227.2-633.1L18277.9,4056.6"/>
				<path id="bike1wheel2_00000075843750394793268990000007855971790024749210_" class="st22" d="M18904.9,3765.1l7.2,16.7
					l-642.8,276.1l-422.6,603.7l-14.9-10.5l425.6-607.9l2.3-1L18904.9,3765.1"/>
				<path id="bike1wheel2_00000026130861428087132550000010565416116336212363_" class="st22" d="M18518.2,3352.6l17.3,5.8
					c-4.6,13.6-253.1,667.7-263.7,695.5l-6.4,17l-400.5-633.3l15.4-9.7l381,602.5C18352.3,3790.8,18514.8,3362.9,18518.2,3352.6"/>
				<path id="bike1wheel2_00000098183393441904093300000002911939024482594210_" class="st22" d="M18264.9,4087.1l713.3,122.7
					l-3.1,17.9l-713.3-122.6L18264.9,4087.1"/>
				<path id="bike1wheel2_00000034079182784929359880000013982208675467892130_" class="st22" d="M18209.3,4097.8l17.2,5.7l-209,627
					l-17.2-5.7L18209.3,4097.8"/>
				<path id="bike1wheel2_00000152251631397614289650000015065661788286827412_" class="st22" d="M18264.8,4041.1l2.6,1.4
					l654.3,331.6l-8.2,16.2l-651.6-330.3l-701.3,117.7l-3-18L18264.8,4041.1"/>
				<path id="bike1wheel2_00000052087543698218459410000002234952326896877234_" class="st22" d="M17999.3,3375.3
					c3.9,11.4,171.8,424.5,265.8,655.5l363.1-571.2l15.4,9.7l-382.1,601l-6.6-16.3c-10.9-26.9-268.2-659.2-272.8-673L17999.3,3375.3
					"/>
				<path id="bike1wheel2_00000114058487794846832580000000775225193886578050_" class="st22" d="M18966.2,3937.1l2.7,18
					l-704.2,104.5l-2.7-18L18966.2,3937.1"/>
				<path id="bike1wheel2_00000012455957946965213820000000117502460178133378_" class="st22" d="M18306.5,4144.6l390.8,449.8
					l-13.8,11.9l-390.7-449.8L18306.5,4144.6"/>
				<path id="bike1wheel2_00000164492662193219536470000013727240660375851916_" class="st22" d="M18286.1,3341.1l18.1,1.5
					l-54.5,658.8l-18.1-1.5L18286.1,3341.1"/>
				<path id="bike1wheel2_00000134239033138081422500000003265705059422648996_" class="st22" d="M17677.9,3647.8l622.4,431.6
					l-10.3,15l-622.5-431.6L17677.9,3647.8"/>
				<path id="bike1wheel2_00000131336937962776870400000008589368049232482953_" class="st24" d="M18888.8,3791.8
					c-2.2-5.6-4.6-11.2-7.2-16.7c-28.7-64.3-67.2-123.3-113.6-175.2c-4-4.6-8.1-9.1-12.3-13.5c-36.4-38.5-77.2-72.8-121.7-102
					c-5-3.4-10.1-6.6-15.3-9.8c-33.7-20.9-69.4-38.9-106.7-53.7c-5.6-2.2-11.3-4.4-17-6.5c-61-22.2-126-36-193.6-39.7
					c-6-0.4-12.1-0.6-18.1-0.8c-6.7-0.2-13.3-0.3-20-0.3c-84.7,0-168.2,15.8-246.2,46.3c-5.7,2.1-11.3,4.4-16.9,6.7
					c-27.2,11.6-53.7,24.8-79.3,39.9c-3.9,2.3-7.8,4.7-11.7,7.1c-5.2,3.1-10.3,6.3-15.3,9.7l-0.5,0.3
					c-74,48.3-137.9,110.8-187.9,183.4c-3.5,5-6.9,10.1-10.1,15.2c-6.2,9.3-12,18.7-17.6,28.3c-43.2,74.2-71.7,156-84.1,240.8
					c-4.1,26.9-6.4,54.1-7.1,81.5c-0.2,5.9-0.3,11.9-0.3,17.8c0,35.1,2.7,69.5,7.8,103.1c1,6,2,12,3,17.9
					c13.7,75.5,39.9,146.7,76.6,211.3c15.7,28,33.4,54.7,52.9,79.9c40.2,52.2,87.8,98.4,141.2,136.9c4.9,3.6,9.9,7.1,14.9,10.5
					c41.1,28.1,85.4,51.7,132.2,70.3c5.7,2.2,11.4,4.3,17.1,6.4c42.4,15.5,86.5,26.8,132.3,33.5h0.1c29.4,4.3,59.3,6.7,89.8,7.1
					c3,0.1,6.1,0.1,9.1,0.1s6.1,0,9.1-0.1c74.7-0.9,146.5-14.1,213.5-37.5c5.8-2,11.4-4.1,17.1-6.2c60.4-22.9,116.7-54.3,167.4-92.6
					c4.9-3.6,9.6-7.3,14.3-11.2c73.3-58.4,134.2-131.6,178.1-215.2c2.9-5.4,5.7-10.8,8.3-16.2c20.4-41.3,36.6-85,48.3-130.5
					c1.4-5.9,2.9-11.8,4.1-17.8c11-48.2,16.8-98.3,16.8-149.7c0-30.6-2-60.8-6-90.4c-0.8-6-1.7-12.1-2.7-18
					C18923.2,3889.8,18908.7,3839.4,18888.8,3791.8L18888.8,3791.8z M18263.3,4836.7c-120.3,0-234.4-27.2-336.4-75.8
					c-115-54.5-214.7-136.3-290.7-236.9c-19.8-26.1-38-53.6-54.4-82.1c-66.5-115.2-104.5-248.9-104.5-391.2c0-9.1,0.2-18.2,0.5-27.3
					c0.9-27.3,3.3-54.5,7-81.5c14.1-100.7,47.5-198.1,98.7-286.1c64.4-110.6,155.4-204.4,263.9-272.1c6-3.8,12.1-7.5,18.2-11.1
					c90.8-53.4,191.5-87.7,295.7-101.3c33.7-4.4,67.8-6.6,102-6.6c34.6,0,68.7,2.2,102.1,6.6c385.3,50.2,683.9,380.6,683.9,779.4
					C19049.3,4484.1,18696.7,4836.7,18263.3,4836.7"/>
			</g>
			<path id="path340" class="st7" d="M17622.8,4857.2c11.5-4.1,24.2-2.8,34.7,3.5c367.7,222.2,876.6,138.8,1023.8,107.9l0.2-0.1
				c8.1-1.7,15.7,4.5,15.7,12.8v28.7c0,22-16,40.7-37.8,43.9c-79.6,11.9-265.6,37.3-369.6,37.8c-2.8,0-5.6,0-8.4,0
				c-232.8,0-433.8-41.7-599-124c-33.7-16.8-72.8-19.2-108.4-6.7l-45.3,15.9c-25.9,9.1-54.3-4.5-63.4-30.4
				c-5.9-16.7,2.9-35,19.6-40.9L17622.8,4857.2"/>
			<path id="path342" class="st7" d="M17964.6,5417.1c0,0,14.8,67-27.3,71.6c-42,4.5-195.3-28.4-236.2-23.9
				c-40.9,4.6-254.5,39.8-291.9,3.4c-37.5-36.3-21.6-68.1,53.3-74.9c75-6.9,175-19.3,203.4-43.2
				C17694.3,5326.2,17899.8,5255.8,17964.6,5417.1"/>
			<path id="path344" class="st23" d="M17418.2,3941.6c0,112.9-91.5,204.5-204.4,204.5s-204.5-91.6-204.5-204.5
				s91.6-204.4,204.5-204.4S17418.2,3828.6,17418.2,3941.6"/>
			<path id="path346" class="st21" d="M16501.3,5674.6c0,0-66.9,84.9-103.5,74.4c-63.2-18.3-68.4-76-66.9-87.8
				c1.6-11.8,0.8-58.2,28.9-68.1c28-9.9,57.2,2.3,70.1,13.1C16442.9,5617.1,16501.3,5674.6,16501.3,5674.6"/>
			<path id="path348" class="st21" d="M16387.7,5743.2c0,0,9.3-52.8,73.3-70.4c64.1-16.9,460.1,149.8,554.4,196.2
				c50.6,25.4,123.8,166.1,180.1,289.2c13.4,30.3,26,59.1,37.3,85.2c28.2,65.4,46.4,112.5,46.4,112.5c0,64.8-71.4,39.5-136.1,9.9
				c-19.8-9.1-122.9,34.5-150.3-18.3c-12.7-24.6-29.5-21.8-42.2-49.3c-49.9-110.4-95.6-235-105.5-264.5
				C16827.5,5980.9,16387.7,5743.2,16387.7,5743.2"/>
			<path id="path350" class="st20" d="M16550.8,5625.2c0,0-66.6,83.5-103.6,74.3c-87-21.7-75.3-84.5-73.7-96.3
				c1.5-11.7,7.7-49.7,35.8-59.6c28-9.9,57.2,2.3,70.1,13.2C16492.4,5567.6,16550.8,5625.2,16550.8,5625.2"/>
			<path id="path352" class="st20" d="M17316.4,6462.5l-226-83.4c-28.8,28-57.8,72.6-81,113.4c-28.8,50.6-48.8,95.3-48.8,95.3
				l157.8,110.6l49.6,34.7C17171.2,6632.4,17316.4,6462.5,17316.4,6462.5"/>
			<path id="path354" class="st21" d="M17180,6678.5c0,0-44.8-139.4-170.6-186c-28.8,50.6-48.8,95.3-48.8,95.3l157.8,110.6
				L17180,6678.5"/>
			<path id="path356" class="st20" d="M16889.1,6591.2c0,0,279.4-43.8,304,130.7c24.6,174.4,77.2,286.2-100.1,321.5
				c-177.4,35.4-221.5-26.3-243.9-82.5S16817,6607.1,16889.1,6591.2"/>
			<path id="path358" class="st23" d="M17255.8,7075.2c0,0-12.7-2.6-22.9-13.2l-0.2,0.2c-0.7,37.6-37.6,75.6-37.6,75.6
				c17.7-22.3,12-63.5,12-63.5c-52.6,89.9-308.8,19.2-332.8,13.2s-41,30-41,30c-37.9-32.8-52.3-113.2-20.9-165.8
				c31.4-52.5,133.4-129.8,162.7-115.1c29.4,14.7,29.4-15.7,27.9-58.4c-1.5-42.6,72.4-114.4,124.5-124.8c42-8.4,45.3,20.3,56.8,38.7
				c2.8,4.5,6.2,8.7,10.2,12.3c57.2,51.6,88.7,154.8,75.9,256.5c-5.1,40.3-21.8,74.3-31.2,90.7
				C17243,7058,17250.4,7070.1,17255.8,7075.2"/>
			<path id="path360" class="st23" d="M17159.1,5531.1c2.9-12.7,33.8-116.8,114-143.6c52.1-17.6,178.8-60.5,291.3-68.9
				c26.1,21.8,45.8,45.7,57,73.1c64.8,158.4-40.8,275.9-40.8,275.9S17359.7,5616.9,17159.1,5531.1"/>
			<path id="path364" class="st26" d="M16948.1,6311.4c21.8-7,74.5-26.7,88.6-50.7c14.8-23.9,169.6,43,187.9,105.6
				c-44.3,48.5-120.3,90-164.7,76C17033.9,6434.5,16991.7,6379,16948.1,6311.4"/>
			<path id="path366" class="st27" d="M17839.3,5818.1c0,0-293.9-209.4-490.3-197.7c0,0-129-219.9-157.6-292.4
				c0,0,334.2-167.1,508-136.4c0,0,226.4,219.9,213.3,373.9C17899.5,5719.4,17839.3,5818.1,17839.3,5818.1"/>
			<path id="path368" class="st5" d="M17033.1,6211.9l70.5-100.3l5.6-12.7l146.4-334.2l74.5-170.3c50-12,142.9-3.5,184.4,11.3
				c226.6,77.4,325.1,212.5,325.1,212.5c-131.6,344-313.9,579-351.1,620.6c-64.8,70.3-234.4,128-234.4,128
				c-46.4-47.8-212.5-131.6-212.5-131.6C17005.1,6406.4,17033.1,6211.9,17033.1,6211.9"/>
			<path id="path370" class="st26" d="M17109.2,6098.9l146.4-334.2c111.1,224.4,40.8,550.2,40.8,550.2s-178.8-154.8-185.1-166.7
				C17110.6,6146,17109.2,6127.8,17109.2,6098.9"/>
			<path id="path372" class="st20" d="M16437.2,5693.7c0,0,9.3-52.7,73.3-70.3c64-16.9,460.1,149.7,554.4,196.2
				c50.6,25.3,123.8,166,180.1,289.1c13.4,30.3,26,59.2,37.3,85.2c28.1,65.4,46.4,112.6,46.4,112.6c0,64.7-152.7,152.7-217.4,123.1
				c-19.7-9.1-45.7-49.2-73.2-102c-12.6-24.6-25.3-51.4-38-78.8c-49.9-110.5-95.7-235-105.5-264.6
				C16877,5931.4,16437.2,5693.7,16437.2,5693.7"/>
			<path id="path374" class="st5" d="M17000.1,6248.8c59.1-26.8,165.4-78.8,244.9-140.1c13.4,30.3,26,59.2,37.3,85.2
				c28.1,65.4,46.4,112.6,46.4,112.6c0,64.7-152.7,152.7-217.4,123.1c-19.7-9.1-45.7-49.2-73.2-102
				C17025.5,6303,17012.8,6276.2,17000.1,6248.8"/>
			<path id="path376" class="st25" d="M16927.7,3803.1h-52.6c-17.6,2.4-30.7,6.9-48.7,9c-27.5,3.2-40.1-6.8-42.7-9l-0.4-0.5h-223.6
				c-5.6,7.1-0.2,23.5,5.1,35.6c3.5,8.3,11.3,14.5,20.9,17c23.7,6,70.4,11.4,113.2,45.7c24.1,19.3,116.3,70.8,116.3,70.8l0.5,0.1
				c2-0.1,11.7-2.7,53.6-34c21.7-16.2,58.6,22.8,58.6,22.8s7-5.1,12.2-14.5c4.1-7.5,7.2-17.7,4.8-30.4c-3.4-17.8,7.4-50.9,16-73.3
				c5.2-13.5,9.6-23.2,9.6-23.2S16973,3808.1,16927.7,3803.1"/>
			<path id="path378" class="st22" d="M16940.1,3946.1c-12.6-7.8-39.1-23.3-56.7-25.3c-23.8-2.7-68.2,50.9-68.2,50.9l0.5,0.1
				c2-0.1,11.7-2.7,53.6-34c21.7-16.2,58.6,22.8,58.6,22.8S16934.9,3955.6,16940.1,3946.1"/>
			<path id="path380" class="st22" d="M16927.7,3803.1h-52.6c-17.6,2.4-30.7,6.9-48.7,9c-27.5,3.2-40.1-6.8-42.7-9l-0.4-0.5h-223.6
				c-5.6,7.1-0.2,23.5,5.1,35.6c6.7,5.4,8.7-23.1,12.4-27.7c3.8-4.5,182.4-1.6,192.7,5c10.3,6.6,41.3,18.2,84.4,9.1
				c37.6-7.9,92.9,12.4,106.6,17.8c5.2-13.5,9.6-23.2,9.6-23.2S16973,3808.1,16927.7,3803.1"/>
		</g>
		<g id="biker2">
			<path id="path382" class="st23" d="M24790.7,3952.9c19.2,0,34.9,15.6,34.9,34.9c0,432.9-352.3,785.2-785.2,785.2
				c-100,0-197.3-18.6-289.3-55.1c-17.9-7.1-26.6-27.4-19.6-45.3c7.2-17.8,27.4-26.7,45.4-19.6c83.7,33.3,172.4,50.2,263.5,50.2
				c394.5,0,715.4-320.9,715.4-715.4C24755.8,3968.6,24771.4,3952.9,24790.7,3952.9"/>
			<path id="path384" class="st21" d="M25420,5645.9c0,0-53.2-110.7-120.4-264.1c-75.4-171.9-168.5-397.6-223.9-581.1
				c-29.3-97.1-48.1-182.3-48.1-241.6c-0.1-20.3,78.4-102.9,101-134.4c142.9-198.9,338.1-464.5,338.1-464.5l53.2,13.4
				c0,0-74.6,332.1-183.3,498c-21.4,32.6-81.6,72.3-78.7,75.9l0.1,0.1c9.3,11.7,32.8,41.2,64.7,83.3
				c88.1,115.9,241.1,327.3,343.6,523.9c6.4,12.2,12.6,24.4,18.5,36.6c54.1,109.7,89.7,212.5,86.2,288.7L25420,5645.9"/>
			<path id="path386" class="st28" d="M25567.2,3960.6l-36.7-23.2c-13.5-5.8-24.8-8-38.4-14.3c-20.8-9.6-24.6-23-25.2-25.9l-0.1-0.6
				l-155.8-98.5c-7.4,3.1-11.9,18.4-14.2,30.3c-1.6,8,0.7,16.4,6.1,22.5c13.5,15.3,43.4,40.1,56.1,86c7.2,25.8,45.8,107,45.8,107
				l0.3,0.3c1.4,0.8,9.4,3,54.2-3.2c23.2-3.1,29.5,43.9,29.5,43.9s7.4-1,15.7-6.1c6.6-4.1,13.8-10.8,18.5-21.8
				c6.5-15.5,30.5-36.9,47.6-50.7c10.4-8.4,18.3-14.1,18.3-14.1S25596.2,3984.6,25567.2,3960.6"/>
			<path id="path388" class="st29" d="M25504.5,4078.8c-4.9-11.8-15.7-35.6-26.9-44.9c-15.2-12.7-72.8,10-72.8,10l0.3,0.3
				c1.4,0.8,9.4,3,54.2-3.2c23.2-3.1,29.5,43.9,29.5,43.9S25496.2,4083.9,25504.5,4078.8"/>
			<path id="path390" class="st29" d="M25567.2,3960.6l-36.7-23.2c-13.5-5.8-24.8-8-38.4-14.3c-20.8-9.6-24.6-23-25.2-25.9l-0.1-0.6
				l-155.8-98.5c-7.4,3.1-11.9,18.4-14.2,30.3c2.1,7.2,17.6-14.5,22.5-16.4s127.9,79.1,131.7,88.9c3.9,9.7,19.7,32.5,54.3,44.4
				c30.1,10.3,58.5,50.7,65.3,61c10.4-8.4,18.3-14.1,18.3-14.1S25596.2,3984.6,25567.2,3960.6"/>
			<path id="path392" class="st7" d="M25375.2,3862.6l418.3,1308.4l-70.6,22.6l-418.3-1308.5L25375.2,3862.6"/>
			<path id="path394" class="st7" d="M25410.3,3858.9l987.4,85.9l-1831.2,1238l104.8-214.5l1511.8-967.8l-779.2-67.8L25410.3,3858.9
				"/>
			<path id="path396" class="st7" d="M25277.2,3916.9l62.3,40.1l-759.8,1217.1l-88.4-91.6L25277.2,3916.9"/>
			<path id="path398" class="st22" d="M25173.5,4090.4l-139-80.2c-16.3-9.4-21.9-30.5-12.5-46.8c9.4-16.4,30.5-22,46.8-12.6
				l139,80.3c16.3,9.4,22,30.5,12.5,46.8C25210.9,4094.2,25189.8,4100,25173.5,4090.4"/>
			<path id="path400" class="st22" d="M25146,4038.8l175.2-193.9l16.2,14l-175.3,193.9L25146,4038.8"/>
			<path id="path402" class="st27" d="M25710.3,4703.1c10.4-3.7,21.9-2.5,31.4,3.2c333.1,201.2,793.8,125.6,927.1,97.7l0.3-0.1
				c7.3-1.5,14.2,4.1,14.2,11.6v26c0,19.9-14.6,36.8-34.3,39.8c-72.1,10.7-240.5,33.7-334.6,34.1c-2.6,0.1-5.1,0.1-7.6,0.1
				c-210.9,0-392.9-37.8-542.5-112.3c-30.6-15.3-66-17.4-98.2-6.1l-41,14.4c-23.5,8.3-49.2-4.1-57.4-27.5
				c-5.3-15.1,2.6-31.7,17.8-37.1L25710.3,4703.1"/>
			<path id="path404" class="st22" d="M26019.8,5210.2c0,0,13.4,60.7-24.7,64.8c-38,4.1-176.9-25.7-213.9-21.6s-230.4,36-264.4,3.1
				c-33.9-33-19.5-61.8,48.4-67.9c67.9-6.2,158.4-17.5,184.1-39.1S25961.2,5064.1,26019.8,5210.2"/>
			<path id="path406" class="st22" d="M25525.1,3873.9c0,102.2-82.9,185.1-185.2,185.1c-102.3,0-185.1-82.9-185.1-185.1
				c0-102.3,82.8-185.2,185.1-185.2S25525.1,3771.6,25525.1,3873.9"/>
			<path id="path432" class="st23" d="M26455.7,3971.2c0,67.1-54.4,121.4-121.4,121.4s-121.4-54.3-121.4-121.4
				c0-67,54.4-121.3,121.4-121.3S26455.7,3904.2,26455.7,3971.2"/>
			<path id="path462" class="st23" d="M24134.4,3971.2c0,67.1-54.4,121.4-121.4,121.4s-121.4-54.3-121.4-121.4
				c0-67,54.4-121.3,121.4-121.3S24134.4,3904.2,24134.4,3971.2"/>
			<g id="biker2wheel1">
				<path id="biker2wheel1_00000029744593460312405100000001640517364788814751_" class="st30" d="M24618.1,3873.2
					c-7.6-47.5-20.8-93.2-38.8-136.3c-2-5.1-4.2-10.1-6.5-15.1c-26-58.2-60.8-111.7-102.9-158.6c-3.6-4.1-7.3-8.2-11.1-12.2
					c-32.9-35-69.9-66.1-110.2-92.4c-4.6-3.1-9.1-6-13.8-8.9c-30.5-18.9-62.9-35.2-96.7-48.7c-5-2-10.1-3.9-15.3-5.8
					c-55.1-20.2-114-32.6-175.2-36c-5.5-0.3-11-0.6-16.5-0.7c-6-0.2-12-0.3-18.1-0.3c-76.7,0-152.4,14.3-223,41.9
					c-5.1,2-10.2,4-15.2,6.2c-24.7,10.4-48.7,22.4-71.9,36c-3.6,2.1-7.1,4.2-10.6,6.5c-4.7,2.8-9.3,5.7-13.9,8.8l-1.2,0.8
					c-66.7,43.6-124.3,100-169.3,165.5c-3.3,4.5-6.4,9.1-9.2,13.7c-5.7,8.4-10.9,17-16,25.7c-54.2,93.1-82.8,199.6-82.8,308
					c0,31.7,2.4,62.8,7.1,93.2c0.8,5.5,1.7,10.9,2.7,16.3c28.8,158.9,119,296.7,245.1,387.8c4.5,3.2,8.9,6.3,13.5,9.4
					c2.9,2,5.9,4,8.9,5.9c34.7,22.9,71.8,42.2,110.9,57.7c5.1,2,10.3,4,15.4,5.9c62.9,22.9,130.7,35.8,201.2,36.7
					c2.8,0.1,5.5,0.1,8.3,0.1c2.7,0,5.5,0,8.2-0.1c61.5-0.8,120.8-10.7,176.7-28.4c5.6-1.7,11.1-3.6,16.6-5.5
					c5.2-1.8,10.4-3.7,15.5-5.7c19.7-7.4,38.9-15.9,57.5-25.2c33.2-16.8,64.7-36.4,94.1-58.6c4.4-3.3,8.7-6.7,13-10.1
					c66.4-53,121.5-119.3,161.3-194.9c2.6-4.9,5.1-9.8,7.4-14.8c18.5-37.4,33.2-76.9,43.7-118.1c1.4-5.3,2.7-10.6,3.9-16
					c9.9-43.6,15.1-89,15.1-135.6c0-27.7-1.9-55-5.5-81.8C24619.8,3884.1,24619,3878.6,24618.1,3873.2L24618.1,3873.2z M24385,4578
					c-18.5,11.5-37.7,22.1-57.3,31.7c-29.9,14.9-61.1,27.7-93.3,38.2c-69.7,22.9-144.1,35.3-221.4,35.3
					c-106.2,0-207-23.4-297.6-65.3c-12.9-5.9-25.7-12.3-38.2-19c-223.6-120.2-376-356.4-376-627.5c0-125.9,33.2-249.5,96.2-357.7
					c61.6-105.8,149.9-194.4,255.4-256.4c8-4.7,16.2-9.3,24.4-13.6c77.3-41.5,161.8-68.1,248.9-78.7c0.8-0.2,1.6-0.3,2.5-0.3
					c27.9-3.4,56.1-5.1,84.4-5.1c28.8,0,57.3,1.7,85.2,5.1l2.6,0.3c351.2,43.4,624,343.6,624,706.4
					C24724.8,4227.6,24588.7,4452.6,24385,4578"/>
				<path id="biker2wheel1_00000154401774645092011670000017427736411169799082_" class="st28" d="M24602.3,3875.6
					c-7.2-46.2-19.5-90.7-36.5-132.8c-2.1-5.1-4.2-10.1-6.4-15.1c-24.7-56.9-58.1-109.3-98.3-155.5c-3.6-4.1-7.3-8.2-11.1-12.3
					c-31.9-34.7-67.9-65.7-107.2-92.1c-4.6-3.1-9.2-6.1-13.8-9c-29.7-18.9-61.2-35.2-94.2-48.7c-5.1-2.1-10.2-4.1-15.4-6
					c-54.2-20.5-112.1-33.4-172.4-37.2c-5.4-0.5-11-0.8-16.5-0.9c-7.6-0.4-15.3-0.5-23-0.5c-75.9,0-148.5,14.1-215.4,39.9
					c-5.1,1.9-10.2,4-15.3,6.1c-28.4,11.8-55.8,25.8-81.8,41.7c-4.7,2.9-9.3,5.8-13.9,8.8c-1.3,0.8-2.6,1.6-3.9,2.6
					c-65.1,42.8-121.3,98-165.5,162.1c-3.1,4.5-6.2,9.1-9.1,13.7c-61.2,94.2-96.8,206.4-96.8,326.8c0,32.8,2.6,64.9,7.7,96.3
					c0.9,5.5,1.8,10.9,2.9,16.3c29.7,156.1,119.9,291,245.2,379.2c4.5,3.3,9,6.4,13.5,9.4l2.1,1.3c35.9,23.8,74.4,43.7,115.1,59.3
					c5.1,2,10.3,3.9,15.5,5.7c61.7,21.8,127.9,33.8,196.9,34.1h2.8c4.6,0,9.2-0.1,13.7-0.2c59.3-1.3,116.5-11.2,170.4-28.7
					c5.8-1.8,11.4-3.7,17.1-5.7c5.2-1.8,10.3-3.7,15.4-5.8c19.2-7.4,38-15.8,56.2-25.1c31.5-16.1,61.4-34.8,89.4-56.1
					c4.4-3.2,8.7-6.6,13-10.1c64.5-51.5,118.1-116,157-189.4c2.6-4.9,5.1-9.8,7.5-14.7c17.7-35.8,32-73.6,42.3-113
					c1.4-5.3,2.8-10.6,4-16c10.3-43.9,15.7-89.7,15.7-136.8c0-25.5-1.6-50.7-4.7-75.3C24603.8,3886.3,24603.1,3880.9,24602.3,3875.6
					L24602.3,3875.6z M24618.5,4108.2c-1.2,5.4-2.6,10.7-4,16c-10.8,41.9-25.8,82.1-44.7,120.1c-2.4,5-4.9,9.9-7.5,14.7
					c-40.4,76.4-96.1,143.5-163,197.1c-4.3,3.5-8.6,6.9-13,10.2c-29.9,22.8-61.9,42.9-95.7,60.1c-28.7,14.6-58.6,27-89.6,37.1h-0.1
					c-23.3,7.6-47.1,13.8-71.5,18.5c-35.1,7.1-71.3,11.1-108.2,11.8c-4.6,0.2-9.1,0.2-13.7,0.2h-2.8c-16.8-0.1-33.5-0.8-50-2.2
					c-53.8-4.5-105.8-15.8-154.9-33.2c-5.2-1.8-10.4-3.7-15.5-5.7c-37.6-14.3-73.4-32.1-107.1-53.2c-5.6-3.4-11.1-7-16.6-10.7
					c-4.6-3-9.1-6.1-13.6-9.3c-130.7-92.1-224.8-232.9-255.5-395.8c-1.1-5.4-2.1-10.9-2.9-16.3c-5.4-32.7-8.1-66.3-8.1-100.5
					c0-125.8,37.2-243,101.2-341.3c3-4.6,6.1-9.2,9.2-13.7c47-68.2,107.1-126.6,176.7-171.6c3.2-2.1,6.4-4.2,9.6-6.1
					c1.4-1,2.9-1.9,4.3-2.7c27.3-16.7,56-31.4,85.9-43.8c5-2.1,10.1-4.1,15.2-6.1c69.8-26.9,145.7-41.7,224.9-41.7
					c8.4,0,16.8,0.2,25.1,0.5c5.5,0.2,11,0.5,16.5,0.9c62.7,4.1,122.9,17.5,179.2,38.8c5.2,1.9,10.3,3.9,15.4,6
					c34.6,14.1,67.7,31.2,98.9,51.1c4.6,2.9,9.2,5.9,13.8,9c40.8,27.4,78.3,59.5,111.4,95.5c3.8,4,7.5,8.1,11.1,12.2
					c42.6,48.5,77.7,103.6,103.8,163.5c2.2,5,4.3,10,6.3,15.1c17.9,44.1,30.9,90.7,38.3,139.1c0.8,5.4,1.6,10.9,2.3,16.3
					c3.2,25.9,4.9,52.3,4.9,79C24634.5,4015.6,24629,4062.9,24618.5,4108.2"/>
				<path id="biker2wheel1_00000125589601253526223700000015795213704026686878_" class="st22" d="M24026.2,3976.8l205.8,573.3
					l-15.5,5.6l-205.8-573.3L24026.2,3976.8"/>
				<path id="biker2wheel1_00000102512799695149652170000005796166283880113800_" class="st22" d="M24594,3712.8l6.5,15.1
					l-582.1,250.1l-382.7,546.7l-13.4-9.5l385.3-550.5l2.2-0.9L24594,3712.8"/>
				<path id="biker2wheel1_00000146493701870323739480000002874396026969357741_" class="st22" d="M24243.9,3339.1l15.6,5.2
					c-4.2,12.4-229.2,604.7-238.8,629.9l-5.8,15.4l-362.7-573.5l13.9-8.8l345.1,545.6C24093.6,3736.1,24240.7,3348.6,24243.9,3339.1
					"/>
				<path id="biker2wheel1_00000035525559658896156610000003118377439866510983_" class="st22" d="M24014.4,4004.3l646,111.1
					l-2.8,16.2l-646-111.1L24014.4,4004.3"/>
				<path id="biker2wheel1_00000173847192203137990670000008579887437250426757_" class="st22" d="M23964.1,4013.9l15.6,5.2
					l-189.3,567.8l-15.6-5.2L23964.1,4013.9"/>
				<path id="biker2wheel1_00000117677612915852493260000008677402360009134521_" class="st22" d="M24014.3,3962.8l2.4,1.2
					l592.5,300.4l-7.4,14.7l-590.1-299.2l-635.1,106.5l-2.7-16.2L24014.3,3962.8"/>
				<path id="biker2wheel1_00000054968470713996307030000013558959518228503971_" class="st22" d="M23773.9,3359.8
					c3.6,10.3,155.6,384.4,240.7,593.7l328.9-517.3l13.8,8.8l-345.9,544.2l-6-14.7c-9.9-24.4-242.9-597.1-247.1-609.5
					L23773.9,3359.8"/>
				<path id="biker2wheel1_00000132794480844377105220000010371063145149645970_" class="st22" d="M24649.6,3868.6l2.4,16.3
					l-637.8,94.6l-2.4-16.3L24649.6,3868.6"/>
				<path id="biker2wheel1_00000022538653566416215260000011127513552212058288_" class="st22" d="M24052.1,4056.4l353.9,407.3
					l-12.4,10.8l-353.9-407.3L24052.1,4056.4"/>
				<path id="biker2wheel1_00000046299409614848358710000015604777378067367595_" class="st22" d="M24033.6,3328.8l16.4,1.4
					l-49.4,596.6l-16.4-1.4L24033.6,3328.8"/>
				<path id="biker2wheel1_00000082330973011572588610000015218168756199763390_" class="st22" d="M23482.8,3606.6l563.7,390.9
					l-9.4,13.5l-563.7-390.9L23482.8,3606.6"/>
				<path id="biker2wheel1_00000057132325319141973220000017854171908386604426_" class="st22" d="M24480.3,3529.3l11.7,11.6
					l-470.8,474.9v617.9h-16.4V4009L24480.3,3529.3"/>
			</g>
			<g id="biker2wheel2">
				<path id="biker2wheel2_00000106857041702313466430000011264841064344551826_" class="st24" d="M26939.4,3873.2
					c-5.4-33.7-13.6-66.4-24.3-98.1c-4.3-12.9-9.1-25.7-14.4-38.2c-2.1-5.1-4.2-10.1-6.5-15.1c-26-58.2-60.9-111.7-103-158.6
					c-3.6-4.1-7.3-8.2-11.1-12.2c-32.9-35-69.9-66-110.2-92.4c-4.5-3.1-9.1-6-13.8-8.9c-30.6-18.9-62.9-35.2-96.7-48.7
					c-5.1-2-10.3-3.9-15.4-5.8c-55.2-20.2-114-32.6-175.2-36c-5.5-0.3-11-0.6-16.5-0.7c-6-0.2-12-0.3-18.1-0.3
					c-76.6,0-152.2,14.3-222.9,41.9c-5.1,2-10.2,4-15.3,6.2c-24.7,10.4-48.7,22.4-71.9,36c-3.6,2.1-7.1,4.2-10.6,6.5
					c-4.7,2.8-9.3,5.7-13.9,8.8c-67.1,43.7-125.1,100.4-170.4,166.3v0.1c-3.3,4.5-6.3,9-9.2,13.6c-5.6,8.4-10.9,17-16,25.7
					c-40,68.6-66,144.5-76.9,223.2c-3.4,24.4-5.4,49-5.7,73.8c-0.2,3.7-0.2,7.3-0.2,11c0,31.7,2.4,62.8,7.1,93.2
					c0.8,5.5,1.7,10.9,2.7,16.3c11,60.7,31,118.4,58.6,171.6c13.2,25.5,28.1,50,44.7,73.3c39.1,55,87,103.3,141.8,142.9
					c4.5,3.2,9,6.3,13.5,9.4c37.2,25.4,77.3,46.8,119.8,63.6c5,2,10.1,4,15.3,5.9c62.9,22.9,130.7,35.8,201.3,36.7
					c2.7,0.1,5.5,0.1,8.2,0.1c2.8,0,5.5,0,8.3-0.1c67.6-0.9,132.6-12.8,193.3-33.9c5.2-1.8,10.4-3.7,15.5-5.7
					c54.7-20.7,105.6-49.1,151.6-83.8c4.4-3.3,8.7-6.7,13-10.1c66.4-53,121.5-119.3,161.3-194.9c2.6-4.9,5.1-9.8,7.5-14.7
					c11.7-23.8,21.9-48.4,30.4-73.7c5-14.6,9.4-29.4,13.2-44.5c1.4-5.3,2.7-10.6,3.9-16c9.9-43.6,15.1-89,15.1-135.6
					c0-27.7-1.8-55-5.5-81.8C26941.1,3884.1,26940.3,3878.6,26939.4,3873.2L26939.4,3873.2z M26915.1,4382.2
					c-129,181.9-341.3,300.9-580.9,300.9c-240.1,0-452.8-119.5-581.8-302.1c-16.9-24-32.4-49-46.3-75.1v-0.1
					c-53.4-99.8-83.7-213.6-83.7-334.5c0-6.5,0.1-13.1,0.3-19.6c0.6-24.7,2.6-49.3,5.9-73.8c12.2-93.1,42.8-183,90.1-264.3
					c61.6-105.8,149.9-194.4,255.4-256.4c83.8-49.3,176.9-80.6,273.2-92.3l2.5-0.3c27.9-3.4,56.1-5.1,84.4-5.1
					c28.8,0,57.3,1.7,85.2,5.1c0.9,0.1,1.8,0.2,2.6,0.3c203.2,25.1,380.1,136.1,493.1,295.5c82.5,116.1,131,257.9,131,410.9
					S26997.6,4266.1,26915.1,4382.2"/>
				<path id="biker2wheel2_00000032606686344510162310000009483529132405202861_" class="st28" d="M26923.6,3875.6
					c-2.3-14.9-5.2-29.6-8.5-44.1c-7.1-30.5-16.5-60.2-28-88.7c-2.1-5.1-4.2-10.1-6.4-15.1c-24.7-56.9-58.1-109.3-98.3-155.5
					c-3.6-4.1-7.3-8.2-11.1-12.3c-31.9-34.7-67.9-65.7-107.2-92.1c-4.6-3.1-9.2-6.1-13.8-9c-29.7-18.9-61.2-35.2-94.2-48.7
					c-5.1-2.1-10.2-4.1-15.4-6c-54.2-20.5-112.1-33.4-172.5-37.2c-5.4-0.5-11-0.8-16.5-0.9c-7.6-0.4-15.2-0.5-22.9-0.5
					c-75.9,0-148.5,14.1-215.4,39.9c-5.1,1.9-10.2,4-15.3,6.1c-28.5,11.8-55.8,25.8-81.9,41.7c-4.7,2.9-9.3,5.8-13.9,8.8
					c-66.7,43.2-124.3,99.3-169.3,164.7c-3.2,4.5-6.2,9.1-9.2,13.7c-47.3,72.9-79.3,156.6-91.4,246.6c-3.2,24.2-5,48.9-5.2,73.9
					c-0.1,2.1-0.1,4.2-0.1,6.3c0,32.8,2.6,64.9,7.7,96.3c0.9,5.5,1.8,10.9,2.9,16.3c11.3,59.6,31.4,116.1,59,168.1
					c13.4,25.3,28.6,49.6,45.4,72.6c38.9,53.5,86.5,100.4,140.7,138.6c4.5,3.2,9,6.3,13.6,9.3c36.5,24.3,75.7,44.7,117.2,60.6
					c5.1,2,10.2,3.9,15.4,5.7h0.1c61.7,21.8,127.9,33.8,196.9,34.1h2.8c4.6,0,9.2-0.1,13.7-0.2c65.6-1.4,128.6-13.5,187.5-34.4
					c5.2-1.8,10.3-3.7,15.4-5.8c52.5-20.2,101.4-47.7,145.6-81.2c4.4-3.2,8.7-6.6,13-10.1c64.5-51.5,118.1-116,157-189.4
					c2.6-4.9,5.1-9.8,7.5-14.7c17.7-35.8,32-73.6,42.3-113c1.4-5.3,2.8-10.6,4-16l0.3-1.1c10.1-43.6,15.4-89,15.4-135.7
					c0-25.5-1.6-50.7-4.7-75.3C26925.1,3886.3,26924.4,3880.9,26923.6,3875.6z M26939.8,4108.2c-1.2,5.4-2.6,10.7-4,16
					c-5.7,22.2-12.6,43.9-20.7,65.1c-7.1,18.8-15.1,37.1-24,55c-2.4,5-4.9,9.9-7.5,14.7c-40.4,76.4-96.1,143.5-163,197.1
					c-4.3,3.5-8.6,6.9-13,10.2c-101.9,77.5-228.2,124.6-365.1,127.5c-4.6,0.2-9.1,0.2-13.7,0.2h-2.8c-71.8-0.3-140.8-12.8-205-35.4
					c-5.2-1.8-10.3-3.7-15.4-5.7c-43.8-16.7-85.2-38.2-123.7-63.9c-4.6-3-9.1-6.1-13.6-9.3c-56.7-39.9-106.5-89-147.2-145.1
					c-16.9-23.2-32.2-47.6-45.7-73.1c-29.4-54.8-50.8-114.6-62.6-177.6c-1.1-5.4-2.1-10.9-2.9-16.3c-5.4-32.7-8.1-66.3-8.1-100.5
					c0-2.8,0-5.7,0.1-8.5c0.3-25,2.1-49.7,5.3-73.9c12.4-94.5,46-182.4,95.8-258.9c3-4.6,6-9.1,9.2-13.6
					c46.9-68.2,107-126.6,176.6-171.7c4.6-3,9.3-5.9,14-8.7c27.3-16.8,55.9-31.4,85.8-43.9c5.1-2.1,10.2-4.1,15.4-6.1
					c69.8-26.9,145.6-41.7,224.8-41.7c8.4,0,16.7,0.2,25,0.5c5.5,0.2,11,0.5,16.5,0.9c62.7,4.1,122.9,17.5,179.3,38.8
					c5.2,1.9,10.3,3.9,15.4,6c34.6,14.1,67.7,31.2,98.9,51.1c4.6,2.9,9.2,5.9,13.8,9c40.8,27.4,78.3,59.5,111.4,95.5
					c3.8,4,7.5,8.1,11.1,12.2c42.6,48.5,77.7,103.6,103.7,163.5c2.3,5,4.4,10,6.4,15.1c1.7,4,3.3,8.1,4.8,12.2
					c15.4,40.5,26.7,82.9,33.5,126.9c0.8,5.4,1.6,10.9,2.3,16.3c3.2,25.9,4.9,52.3,4.9,79
					C26955.8,4015.6,26950.3,4062.9,26939.8,4108.2"/>
				<path id="biker2wheel2_00000050630400837727764250000012178524944042208953_" class="st22" d="M26347.5,3976.8l205.7,573.3
					l-15.4,5.6l-205.8-573.3L26347.5,3976.8"/>
				<path id="biker2wheel2_00000160190329868319858270000008487598858908606855_" class="st22" d="M26915.3,3712.8l6.5,15.1
					l-582.1,250.1l-382.7,546.7l-13.5-9.5l385.4-550.5l2.1-0.9L26915.3,3712.8"/>
				<path id="biker2wheel2_00000006698141228984300750000009118934436721495683_" class="st22" d="M26565.1,3339.1l15.6,5.2
					c-4.1,12.4-229.1,604.7-238.7,629.9l-5.9,15.4l-362.6-573.5l13.9-8.8l345,545.6C26414.9,3736.1,26562,3348.6,26565.1,3339.1"/>
				<path id="biker2wheel2_00000067947082595190354110000005211525237656638618_" class="st22" d="M26335.7,4004.3l646,111.1
					l-2.8,16.2l-646-111.1L26335.7,4004.3"/>
				<path id="biker2wheel2_00000107546945173488343270000006215604529879527049_" class="st22" d="M26285.3,4013.9l15.7,5.2
					l-189.3,567.8l-15.6-5.2L26285.3,4013.9"/>
				<path id="biker2wheel2_00000133504845996496194400000012380355655156539032_" class="st22" d="M26335.6,3962.8l2.4,1.2
					l592.5,300.4l-7.4,14.7l-590.1-299.2l-635.1,106.5l-2.7-16.2L26335.6,3962.8"/>
				<path id="biker2wheel2_00000130610886741850044550000004803722644686892477_" class="st22" d="M26095.2,3359.8
					c3.5,10.3,155.6,384.4,240.7,593.7l328.8-517.3l13.9,8.8l-345.9,544.2l-6-14.7c-9.9-24.4-242.9-597.1-247.1-609.5
					L26095.2,3359.8"/>
				<path id="biker2wheel2_00000129897200592048801170000017998545896934978437_" class="st22" d="M26970.8,3868.6l2.5,16.3
					l-637.8,94.6l-2.4-16.3L26970.8,3868.6"/>
				<path id="biker2wheel2_00000034781647657634230320000008295063123084548247_" class="st22" d="M26373.4,4056.4l353.9,407.3
					l-12.5,10.8l-353.8-407.3L26373.4,4056.4"/>
				<path id="biker2wheel2_00000154385834318622106810000007114962569096376966_" class="st22" d="M26354.9,3328.8l16.4,1.4
					l-49.4,596.6l-16.4-1.4L26354.9,3328.8"/>
				<path id="biker2wheel2_00000049214603162327335420000018291101919010871436_" class="st22" d="M25804.1,3606.6l563.7,390.9
					l-9.4,13.5l-563.7-390.9L25804.1,3606.6"/>
				<path id="biker2wheel2_00000113346887061749918820000016649612271965189017_" class="st22" d="M26801.6,3529.3l11.7,11.6
					l-470.8,474.9v617.9h-16.4V4009L26801.6,3529.3"/>
			</g>
			<path id="path468" class="st20" d="M25855.7,5643.7c0,0,150.5-238.7-35.5-369.9c-186-131.3-812.4-194.1-781.7-219.5
				c93.9-77.9,179.3-197.7,174.8-914.9l-46.4-23.9c0,0-446.7,971.7-416.8,1087.5C24770,5279.6,25421.5,5694.5,25855.7,5643.7"/>
			<path id="path470" class="st27" d="M25494.5,5147.1c0,0,379.6,62.8,418.7,196.8c29.3,100.1,37.9,140.9-134.1,464.3
				c0,0-71.8-136.5-447-104.9c0,0,1.9-17.7,1.9-41.7c-0.5-39.7-6.7-96.3-37.8-112.6l-1.9-0.9c-49.4-22.5-125.8-68-137.3-72.3
				C25156.5,5475.8,25387.2,5431.6,25494.5,5147.1"/>
			<path id="path472" class="st23" d="M25296.2,5549c167.2,49.4,330.5,44.2,426.8,134.1c-141.8,36.4-312.3-21.5-389-21.5
				C25333.5,5621.9,25327.3,5565.2,25296.2,5549"/>
			<path id="path474" class="st28" d="M25276.2,4104.6l-39.1-18.8c-14.1-4.2-25.6-5.1-39.9-9.8c-21.7-7.1-27-20-28-22.8l-0.2-0.5
				l-166.1-79.8c-7,3.9-9.7,19.7-10.6,31.7c-0.7,8.2,2.5,16.2,8.7,21.7c15.2,13.6,47.7,34.8,65.7,78.9
				c10.1,24.7,57.8,100.9,57.8,100.9l0.3,0.3c1.6,0.7,9.8,1.9,53.6-9.4c22.6-5.8,34.3,40.1,34.3,40.1s7.3-1.8,14.9-7.9
				c6.1-4.8,12.5-12.3,15.8-23.8c4.7-16.1,26.1-40.1,41.5-55.9c9.4-9.5,16.5-16,16.5-16S25307.8,4125,25276.2,4104.6"/>
			<path id="path476" class="st29" d="M25227.6,4229.1c-6.2-11-19.6-33.5-31.9-41.5c-16.5-10.7-71.2,18.4-71.2,18.4l0.3,0.3
				c1.6,0.7,9.8,1.9,53.6-9.4c22.6-5.8,34.3,40.1,34.3,40.1S25220,4235.2,25227.6,4229.1"/>
			<path id="path478" class="st29" d="M25276.2,4104.6l-39.1-18.8c-14.1-4.2-25.6-5.1-39.9-9.8c-21.7-7.1-27-20-28-22.8l-0.2-0.5
				l-166.1-79.8c-7,3.9-9.7,19.7-10.6,31.7c2.9,6.9,15.8-16.4,20.4-18.8c4.6-2.5,136.2,63.7,141.2,72.9c5,9.3,23.3,30.1,59,37.8
				c31.1,6.8,64,43.6,72,53c9.4-9.5,16.5-16,16.5-16S25307.8,4125,25276.2,4104.6"/>
			<path id="path480" class="st27" d="M24332,4893.4c10.6,26.6,35.4,43.2,62.2,44.9c307.3,705.9,310.6,711.5,315.2,719.1l44.5-88.1
				c2.3,3.9-695-1563.9-695-1563.9l-68.6,27.9L24332,4893.4"/>
			<path id="path482" class="st22" d="M25064.8,5552.2c14.6,49.1-13.4,100.7-62.5,115.3c-49.1,14.6-100.7-13.4-115.3-62.5
				c-14.6-49,13.4-100.7,62.5-115.3C24998.6,5475.2,25050.2,5503.1,25064.8,5552.2"/>
			<path id="path484" class="st22" d="M24490.7,5714.5c14.6,49.1-13.4,100.7-62.5,115.3c-49.1,14.6-100.7-13.4-115.3-62.4
				c-14.6-49.1,13.4-100.8,62.5-115.4C24424.5,5637.5,24476.1,5665.4,24490.7,5714.5"/>
			<path id="path486" class="st22" d="M24421.3,5652.2l539.9-135.5l9.4,109l-540,135.5L24421.3,5652.2"/>
			<path id="path488" class="st20" d="M24949,5759.8c0,0-50.9-33.3-86.8-31.8s-81.6-13.5-81.6-13.5s-47.9-14.2-52.4-71.1
				c0,0,0.2-16.5,75.6,6.7c16.5,5.1,56.1-4.5,69.6,0s54.4,48.8,90.1,47.6L24949,5759.8"/>
			<path id="path490" class="st21" d="M24677,5824.2c0,0-50.8-33.3-86.8-31.8c-35.9,1.5-81.6-13.5-81.6-13.5s-47.9-14.2-52.4-71.1
				c0,0,1.1-23.4,75.6,6.7c20.5,8.3,56.2-4.5,69.7,0c13.4,4.5,62.8,42.4,97,51.8L24677,5824.2"/>
			<path id="path492" class="st23" d="M25317.5,7189.2c74.2-13.4,108.6-53.5,155.7-167.8c49.1-119.3-10.4-229.1-57.7-214.8
				c-30.3,9.2-41-42.8-41-42.8l-288.8,252.3C25085.7,7016.1,25127.8,7201.4,25317.5,7189.2"/>
			<path id="path494" class="st21" d="M25148.4,6501.2c0,0,100.6-56.6,88.8-200c-11.9-143.4-143.5-369.4-243.5-425.5
				c-79.2-44.4-308.4-113.8-308.4-113.8l-8.3,62.3c0,0,186.5,121.7,226.9,163.3C24990.4,6076.7,25072.8,6535.9,25148.4,6501.2"/>
			<path id="path496" class="st20" d="M25158.4,6178.8c4.6-32.3,13.1-60.1,23.6-86.6c8.8-22.2,18.9-43.3,29.3-65.3
				c30.6-64.6,102.6-96.5,105-220.8c0.9-42.8,362.6,138.1,364.7,287.8l0.1,1.2c0.7,7.2,1.6,26.6,2.8,52.3
				c2.7,62.9,6.2,163.1,7.5,213.9c0,1.2,0,2.3,0.1,3.4c0.5,21.8,1.2,37.5,2,41.6c-48.4,206.1-159.8,206.9-197.8,206.3
				c-5.1-0.1-10.2-0.2-15.2-0.5c-21-0.9-40.7,9-52.8,26.1c-21.3,30.3-45.2,82.3-59.8,153.4l-8.6-3.7l-146.1-62.1
				c0,0,13.5-47.2,23.1-92.3c4.1-19.3,7.4-38.2,8.7-52.9c1.2-14.2-7-27.4-20.2-32.5v-0.1
				C25222.2,6542.2,25135.1,6342.7,25158.4,6178.8"/>
			<path id="path498" class="st21" d="M25182,6092.2c8.8-22.2,18.9-43.3,29.3-65.3c30.6-64.6,102.6-96.5,105-220.8
				c2.2-0.2,4.5-0.4,6.7-0.6c267.1-20.9,358.1,289.6,358.1,289.6c0.7,7.2,1.6,26.6,2.8,52.3l-482-0.7
				C25201.9,6146.7,25192,6124.8,25182,6092.2"/>
			<path id="path500" class="st5" d="M25114.2,6239.3c1.4-4,2.9-8,4.5-12c46.3-110.3,148.6-678.3,148.6-678.3
				c1.3,0.8,418-27.3,583.2,200.6c8-24.1-31.1,114.8-91.9,301.4c-45.7,140-69,238.8-67.2,310.3c0,1.2,0,2.3,0.1,3.4
				c-10.7,8.5-21,16.4-30.6,24c-30.6,24.1-53.5,44.6-54,69.9c-0.2,9.9,0.5,20.1,1.9,30.2c0.7,4.8,1.4,9.6,2.4,14.4
				c9.6,50.2,32.4,95.1,32.4,95.1c-52.5,23.6-147.9,14.3-147.9,14.3s-35.8-80-112-127.7c-21.3-13.4-97.5-46.8-135-12
				c-24.8,23-25.5,70.1-23.9,75.1v0.1c-86.4-30.2-117.9-57.1-117.9-57.1C25157,6455.8,25078.5,6346,25114.2,6239.3"/>
			<path id="path502" class="st21" d="M25213.2,6725.8c0,0,13.5-47.2,23.1-92.3c84.7,20.2,113.5,107.4,122.9,154.4L25213.2,6725.8"
				/>
			<path id="path504" class="st20" d="M25193.7,6677.1c0,0,202.4,38.9,176.2,164.6c-26.2,125.7-17.7,215.3-148,195.8
				s-145.4-72.7-146.8-116.8C25073.6,6876.6,25140.4,6670.2,25193.7,6677.1"/>
			<path id="path506" class="st23" d="M25066.4,6991.8c23.3,44.4,48.6,41,64.2,32.4c97.5,83.7,187.3,9,187.3,9
				c32.4-87.4,108.2-125.4,108.2-125.4s-32-30.4-121.3-26.3c-27.3,1.2-54.2,14.7-78.6,33c46.4-50.4,101.7-82,101.7-82
				c-111,25.6-181.1,157.9-188.3,171.9c-10-13.6-29.2-42.7-31.7-67.8c-3.4-34.1,5.9-100.9-13.8-102.7
				C25094.1,6833.9,25031.5,6925.4,25066.4,6991.8"/>
			<path id="path508" class="st20" d="M24949,5759.8l14.5-62.1c0,0,339.6,46.4,450.6,111s279.1,444.4,292.4,605
				c0.7,8.5,1.1,16.6,1.3,24.4c4.1,138.6-64.2,160.2-64.2,160.2c-27.4,12.5-61.3-34.3-97.3-107.6
				c-75.5-153.5-159.8-423.1-209.9-502.9C25297.9,5926.5,24949,5759.8,24949,5759.8"/>
			<path id="path510" class="st5" d="M25546.3,6490.7c93.1,22,161.5-52.6,161.5-52.6c4.1,138.6-64.2,160.2-64.2,160.2
				C25616.2,6610.8,25582.3,6564,25546.3,6490.7"/>
			<path id="path512" class="st5" d="M25106.9,6491c0,0-34-31.6-47.1-103.5c0,0,50.4-0.3,73.9-49.5
				C25133.7,6338,25152.2,6483.2,25106.9,6491"/>
			<path id="path514" class="st23" d="M25303.5,7144.2c0,0,111.9,138.6,253,99.7s221.5-201.9,287-175.1
				c110.1,45,140.6-102.7,96.7-210.2c-38.4-93.9-204.3-129.7-304.8-26.9c-73.2,75-173.8,395.2-297.8,288.2
				C25213.6,7012.8,25303.5,7144.2,25303.5,7144.2"/>
		</g>
		<path id="basestrip" class="st31" d="M28644.7,3233.8v-10.6c0-16.9-13.8-30.8-30.8-30.8H1473.1c-17,0-30.9,13.9-30.9,30.8v10.6
			c0,16.9,13.9,30.8,30.9,30.8H28614C28630.9,3264.6,28644.7,3250.8,28644.7,3233.8"/>
		<path id="misc_00000158744124623010563360000018131298804773619130_" class="st32" d="M9797.6,5012.2l94.5,73.2l-170.6,0.1
			L9797.6,5012.2z"/>
		<path id="misc" class="st32" d="M14461.1,4452.9l64.9,50.2h-215.2L14461.1,4452.9z"/>
	</g>
</g>
</svg>
